<svg width="305" height="335" viewBox="0 0 305 335" fill="none" xmlns="http://www.w3.org/2000/svg">
<g clip-path="url(#clip0_151_17)">
<path d="M27.6199 25.5401C27.6199 25.5401 129.62 -34.1899 228.42 29.0101C327.22 92.2101 301.18 221.73 301.18 221.73C301.18 221.73 285.27 205.05 255.97 210.45C255.97 210.45 256.5 170.45 213.22 174.11C213.22 174.11 191.48 123.65 144.53 137.47C144.53 137.47 135.77 92.3501 78.9899 98.0801C78.9899 98.0801 66.4399 46.6301 27.6199 25.5401Z" fill="#63310C"/>
<path d="M217.81 200.64C218.245 196.575 217.386 192.477 215.358 188.927C213.329 185.378 210.233 182.559 206.51 180.87C201.04 178.53 194.11 178.53 190.37 173.87C186.25 168.75 188.37 160.69 184.76 155.21C180.62 148.92 170.71 148.55 166.76 142.16C163.76 137.37 165.22 130.86 162.53 125.9C159.71 120.72 153.25 118.7 149.44 114.21C145.2 109.21 144.19 101.21 138.24 98.4801C134.85 96.9101 130.74 97.7001 127.52 99.5901C124.3 101.48 121.77 104.34 119.31 107.15L89.67 140.93C88.7894 141.809 88.1074 142.866 87.67 144.03C86.67 147.34 89.6701 150.36 92.0301 152.86C97.9555 159.13 101.604 167.209 102.39 175.8C102.87 181.14 102.58 187.38 106.74 190.8C109.96 193.42 114.93 193.34 117.74 196.4C121.74 200.82 118.5 207.91 119.57 213.8C120.57 219.29 125.38 223.3 130.37 225.8C135.36 228.3 140.88 229.8 145.5 232.93C150.12 236.06 153.86 241.51 152.69 246.93C162.651 242.108 171.811 235.785 179.85 228.18C177.463 224.72 175.08 221.257 172.7 217.79L185.35 225.72C187.02 222.72 190.35 221.24 193.12 219.27C195.89 217.3 198.42 213.94 197.27 210.74C195.89 206.89 190 205.69 189.49 201.63C195.023 202.917 199.958 206.04 203.49 210.49C209.14 208.22 214.82 205.98 217.84 200.69" fill="#263238"/>
<path d="M131.27 180.1C141.17 172.3 149.72 174.87 159.03 177.18C168.34 179.49 175.86 188.29 182.55 195.18C189.24 202.07 195.13 209.71 202.34 216.04C209.55 222.37 218.47 227.38 228.06 227.49C235.13 227.58 242.15 225 249.15 225.98C252.616 226.502 255.9 227.87 258.712 229.963C261.523 232.056 263.776 234.809 265.27 237.98C262.603 244.54 259.92 251.1 257.22 257.66C253.92 249.41 243.92 246.01 235.03 245.83C226.14 245.65 217.13 247.63 208.43 245.83C197.97 243.63 189.43 236.23 182.15 228.4C174.87 220.57 168.23 211.94 159.37 205.99C150.51 200.04 138.55 197.19 129.1 202.16" fill="#2982FF"/>
<path d="M247.89 248.8C248.441 247.844 248.903 246.84 249.27 245.8C250.03 243.93 251.01 241.31 251.94 238.36C252.87 235.41 253.58 232.7 254.02 230.73C254.316 229.678 254.51 228.599 254.6 227.51C254.218 228.531 253.904 229.577 253.66 230.64C253.13 232.59 252.37 235.27 251.45 238.2C250.53 241.13 249.6 243.77 248.92 245.67C248.502 246.687 248.158 247.733 247.89 248.8Z" fill="#FAFAFA"/>
<path d="M231.4 245.49C231.861 244.649 232.24 243.764 232.53 242.85C233.15 241.19 233.93 238.85 234.67 236.26C235.41 233.67 235.94 231.26 236.27 229.52C236.5 228.586 236.634 227.631 236.67 226.67C236.344 227.572 236.089 228.498 235.91 229.44C235.49 231.15 234.91 233.52 234.16 236.12C233.41 238.72 232.71 241.04 232.16 242.73C231.83 243.627 231.576 244.55 231.4 245.49Z" fill="#FAFAFA"/>
<path d="M213.65 246.88C213.79 246.93 215.59 242.49 217.65 236.96C219.71 231.43 221.33 226.96 221.19 226.86C221.05 226.76 219.25 231.25 217.19 236.78C215.13 242.31 213.52 246.83 213.65 246.88Z" fill="#FAFAFA"/>
<path d="M200.57 241.68C201.091 240.701 201.529 239.681 201.88 238.63C202.61 236.72 203.57 234.05 204.54 231.08C205.51 228.11 206.3 225.38 206.83 223.4C207.168 222.343 207.416 221.259 207.57 220.16C207.131 221.179 206.767 222.228 206.48 223.3C205.81 225.39 204.97 228.01 204.05 230.92C203.13 233.83 202.22 236.42 201.53 238.51C201.13 239.541 200.809 240.6 200.57 241.68Z" fill="#FAFAFA"/>
<path d="M188.94 234.1C189.07 234.1 190.94 228.96 193.1 222.52C195.26 216.08 196.9 210.82 196.76 210.78C196.62 210.74 194.76 215.91 192.6 222.36C190.44 228.81 188.8 234.05 188.94 234.1Z" fill="#FAFAFA"/>
<path d="M182.09 210.99C183.137 209.178 184.03 207.281 184.76 205.32C185.649 203.424 186.378 201.457 186.94 199.44C185.893 201.254 185.003 203.154 184.28 205.12C183.393 207.014 182.661 208.977 182.09 210.99Z" fill="#FAFAFA"/>
<path d="M171.04 196.12C171.979 194.907 172.777 193.592 173.42 192.2C174.212 190.886 174.853 189.488 175.33 188.03C174.397 189.245 173.602 190.559 172.96 191.95C172.163 193.262 171.519 194.661 171.04 196.12Z" fill="#FAFAFA"/>
<path d="M155.71 186.87C156.489 185.419 157.158 183.911 157.71 182.36C158.418 180.876 159.016 179.342 159.5 177.77C158.56 179.132 157.81 180.616 157.27 182.18C156.548 183.669 156.024 185.245 155.71 186.87Z" fill="#FAFAFA"/>
<path d="M141.33 183.12C141.665 181.784 141.75 180.397 141.58 179.03C141.574 177.661 141.316 176.306 140.82 175.03C140.81 176.387 140.89 177.743 141.06 179.09C141.057 180.438 141.147 181.785 141.33 183.12Z" fill="#FAFAFA"/>
<path d="M153.04 277.73L167.96 193.73C159.714 186.875 149.353 183.077 138.63 182.98L89.49 183.39C86.8929 183.671 84.3282 184.197 81.83 184.96C75.83 185.38 64.55 187.66 56.04 201.64C46.99 216.5 33.91 247.08 33.91 247.08L31.15 212.85L9.26996 206.18C-8.91003 254.67 2.75996 291.34 22.9 294.34C39.64 296.83 55.76 276.57 55.76 276.57L63.89 262.62L65.7 271.78L70.55 294.67L53.03 333.91C59.17 333.91 63.2599 334.16 70.8199 333.91H164.49C163.8 326.82 154.84 317.91 154.84 317.91C148.36 306.91 150.04 290.34 153.05 277.75" fill="#323757"/>
<path d="M63.4 323.46C63.6053 323.334 63.7964 323.187 63.97 323.02C64.4878 322.572 65.0286 322.152 65.59 321.76C67.6741 320.33 69.9826 319.259 72.42 318.59C76.0388 317.619 79.7886 317.228 83.53 317.43C88.1148 317.744 92.6744 318.355 97.18 319.26C101.711 320.181 106.317 320.689 110.94 320.78C114.739 320.779 118.508 320.102 122.07 318.78C124.47 317.89 126.682 316.557 128.59 314.85C129.102 314.381 129.58 313.877 130.02 313.34C130.187 313.164 130.338 312.974 130.47 312.77C130.277 312.915 130.103 313.083 129.95 313.27C129.478 313.768 128.98 314.242 128.46 314.69C126.528 316.319 124.32 317.589 121.94 318.44C118.406 319.678 114.685 320.298 110.94 320.27C106.348 320.161 101.774 319.653 97.27 318.75C92.7432 317.837 88.1591 317.235 83.55 316.95C79.7448 316.763 75.9347 317.199 72.27 318.24C69.8125 318.951 67.4979 320.084 65.43 321.59C64.8752 322.006 64.3474 322.457 63.8499 322.94C63.6831 323.098 63.5324 323.272 63.4 323.46Z" fill="#FAFAFA"/>
<path d="M33.37 262.44C33.68 262.44 34.05 258.77 34.19 254.22C34.33 249.67 34.19 245.97 33.88 245.96C33.57 245.95 33.2 249.63 33.06 254.18C32.92 258.73 33.06 262.43 33.37 262.44Z" fill="#263238"/>
<g opacity="0.2">
<path d="M157.63 320.96C157.99 321.06 159.99 323.96 159.44 325.24C159.112 325.852 158.623 326.362 158.025 326.715C157.427 327.067 156.744 327.249 156.05 327.24C154.656 327.22 153.278 326.935 151.99 326.4L104.99 310.4L83.4801 303.06C81.0201 302.22 78.1801 300.98 77.6801 298.43C77.6335 297.614 77.5299 296.802 77.3701 296C77.0927 295.409 76.688 294.886 76.1849 294.469C75.6818 294.052 75.0928 293.752 74.4601 293.59C73.1992 293.269 71.9928 292.764 70.8801 292.09C69.83 291.31 69.0901 288.82 69.7801 287.72C69.6801 287.91 77.5401 288.85 81.5001 290.83C81.2401 292.4 80.1901 296.4 80.1901 296.4C80.1901 296.4 84.4001 297.53 85.9101 298.14C110.79 308.14 132.73 312.44 157.58 320.92" fill="black"/>
</g>
<path d="M31.2601 146.31L64.8301 200.71L38.4101 208.06L9.10008 162.86L31.2601 146.31Z" fill="#455A64"/>
<path d="M33.3499 192.65L32.2099 200.6L27.5199 206.6L27.0499 211.54L10.2099 206.42L17.0199 182.42C17.0199 182.42 15.9199 175.42 16.3599 172.58L20.9899 178.73L22.2599 168.73L31.7599 161.09C32.0051 160.909 32.2837 160.778 32.5796 160.706C32.8755 160.633 33.1828 160.619 33.484 160.666C33.7852 160.712 34.0742 160.818 34.3343 160.976C34.5945 161.135 34.8207 161.344 34.9999 161.59C35.3258 162.037 35.4798 162.586 35.4339 163.137C35.388 163.688 35.1452 164.204 34.7499 164.59L27.1299 171.31L26.6399 179.6L32.1499 174.48C32.6883 173.969 33.3613 173.622 34.0899 173.48L41.7499 171.95C42.0233 171.896 42.305 171.899 42.577 171.96C42.8489 172.021 43.1052 172.138 43.3293 172.304C43.5534 172.469 43.7403 172.68 43.8782 172.922C44.0161 173.164 44.1018 173.433 44.1299 173.71C44.1734 174.168 44.058 174.626 43.803 175.009C43.548 175.391 43.1691 175.674 42.7299 175.81L35.7299 177.96L28.6799 185.07L35.5699 182.45L44.9399 183.76C45.3746 183.819 45.773 184.034 46.0602 184.365C46.3475 184.697 46.5038 185.122 46.4999 185.56C46.5003 185.806 46.4504 186.05 46.3532 186.277C46.2561 186.503 46.1138 186.707 45.9349 186.877C45.7561 187.046 45.5446 187.177 45.3133 187.262C45.0821 187.347 44.8359 187.384 44.5899 187.37L38.5899 187.04L35.0899 188.13L43.1499 190.27C43.5107 190.364 43.828 190.579 44.0484 190.88C44.2688 191.18 44.3788 191.548 44.3599 191.92C44.3486 192.138 44.2937 192.351 44.1985 192.547C44.1032 192.743 43.9696 192.919 43.8055 193.062C43.6414 193.206 43.4501 193.315 43.243 193.383C43.036 193.452 42.8173 193.478 42.5999 193.46L33.3499 192.65Z" fill="#FFBE9D"/>
<path d="M64.83 200.71C64.83 200.71 67.08 197.64 66.91 197.12C66.74 196.6 34.96 144.3 34.96 144.3L31.26 146.3L64.83 200.71Z" fill="#263238"/>
<path d="M22.8501 159.98C22.7016 159.851 22.5243 159.76 22.3332 159.715C22.142 159.67 21.9428 159.671 21.7523 159.719C21.5618 159.767 21.3858 159.861 21.2392 159.991C21.0925 160.122 20.9796 160.286 20.9101 160.47C20.8703 160.662 20.8769 160.86 20.9293 161.049C20.9818 161.238 21.0785 161.411 21.2116 161.555C21.3446 161.699 21.5101 161.809 21.6942 161.876C21.8783 161.943 22.0758 161.965 22.2701 161.94C22.4572 161.884 22.6283 161.784 22.7691 161.649C22.91 161.513 23.0166 161.346 23.0801 161.162C23.1436 160.977 23.1623 160.78 23.1344 160.586C23.1066 160.393 23.0331 160.209 22.9201 160.05" fill="#263238"/>
<path d="M158.55 188.03C158.55 188.03 183.55 195.62 188.98 233.03C190.87 245.96 193.16 275.75 193.98 297.86C194.49 312.35 189.11 320.51 180.35 323.56C175.706 325.07 170.704 325.07 166.06 323.56L80.4701 296.92L87.9001 261.07L152.27 278.45L150.65 251.89L158.55 188.03Z" fill="#323757"/>
<path d="M164.01 291.95C163.721 290.359 163.137 288.837 162.29 287.46C159.848 283.555 156.429 280.356 152.37 278.18L88.7299 262.18L88.19 262.04L88.06 262.59L82.69 285.39L80.12 296.39L80.0099 296.89L80.5 297.05C106.22 305.52 129.15 312.78 145.7 317.79C153.97 320.29 160.65 322.23 165.26 323.51L170.58 324.94L171.97 325.28C172.125 325.331 172.287 325.358 172.45 325.36C172.45 325.36 172.3 325.28 172 325.18L170.64 324.73L165.38 323.12L145.92 317.06C129.45 311.86 106.56 304.47 80.8499 295.98L81.22 296.65C82.05 293.15 82.92 289.44 83.8 285.65L89.14 262.84L88.47 263.26L152.21 278.81H152.15C156.145 280.903 159.552 283.962 162.06 287.71C162.832 289.064 163.485 290.483 164.01 291.95Z" fill="#263238"/>
<path d="M152.27 245.96C151.96 245.96 151.96 253.38 152.27 262.5C152.58 271.62 153.1 279.02 153.42 279.01C153.74 279 153.73 271.59 153.42 262.46C153.11 253.33 152.64 245.94 152.27 245.96Z" fill="#263238"/>
<path d="M43.1001 227.18C43.1001 227.18 43.6601 227.06 44.7401 227.06C46.3121 227.102 47.8528 227.509 49.2401 228.25C51.428 229.442 53.41 230.978 55.1101 232.8C56.1101 233.8 57.2601 234.92 58.5401 235.99C59.8803 237.148 61.4002 238.08 63.0401 238.75C66.5101 240.17 70.7401 240.2 75.0401 239.45C79.3401 238.7 83.7201 237.17 88.4701 236.28C90.8914 235.795 93.3673 235.64 95.8301 235.82C98.3894 236.079 100.87 236.854 103.12 238.1C107.77 240.57 111.68 244.51 116.32 247.71C118.608 249.33 121.135 250.582 123.81 251.42C126.419 252.2 129.14 252.538 131.86 252.42C134.491 252.319 137.086 251.782 139.54 250.83C141.857 249.884 144.05 248.658 146.07 247.18C150.07 244.37 153.47 241.18 157.01 238.77C160.215 236.382 163.922 234.757 167.85 234.02C171.102 233.476 174.43 233.585 177.64 234.34C180.064 234.9 182.392 235.813 184.55 237.05C186.387 238.119 188.086 239.409 189.61 240.89C189.527 240.777 189.434 240.674 189.33 240.58L188.46 239.7C188.06 239.33 187.54 238.91 186.93 238.4C186.199 237.851 185.438 237.343 184.65 236.88C182.489 235.594 180.146 234.643 177.7 234.06C174.457 233.263 171.088 233.123 167.79 233.65C165.875 233.971 164.008 234.529 162.23 235.31C160.308 236.159 158.476 237.198 156.76 238.41C153.18 240.87 149.76 244.01 145.76 246.79C143.753 248.231 141.581 249.426 139.29 250.35C136.886 251.275 134.345 251.795 131.77 251.89C129.106 251.998 126.443 251.66 123.89 250.89C121.268 250.069 118.791 248.841 116.55 247.25C111.95 244.09 108.03 240.14 103.29 237.62C100.982 236.343 98.4359 235.554 95.8101 235.3C93.3 235.11 90.7755 235.271 88.3101 235.78C83.5101 236.69 79.1401 238.27 74.9001 238.99C70.6601 239.71 66.5401 239.74 63.1401 238.38C59.7401 237.02 57.4001 234.53 55.2801 232.56C53.5413 230.735 51.5143 229.208 49.2801 228.04C47.8565 227.309 46.2803 226.925 44.6801 226.92C44.1443 226.937 43.613 227.024 43.1001 227.18Z" fill="#FAFAFA"/>
<path d="M55.95 203.18L56.16 203.46C56.31 203.63 56.51 203.91 56.83 204.23C57.7316 205.186 58.7379 206.038 59.83 206.77C61.5522 207.927 63.45 208.798 65.45 209.35C68.1138 210.069 70.9033 210.192 73.62 209.71C76.62 209.25 79.81 208.17 83.31 207.71C87.0509 207.192 90.8578 207.934 94.13 209.82C97.64 211.7 100.86 214.44 104.39 217C106.176 218.339 108.073 219.523 110.06 220.54C112.131 221.549 114.313 222.314 116.56 222.82C121.006 223.825 125.626 223.777 130.05 222.68C134.118 221.569 138.007 219.886 141.6 217.68C145.07 215.68 148.22 213.51 151.26 211.68C154.043 209.922 156.966 208.397 160 207.12C164.384 205.207 169.205 204.516 173.95 205.12C175.233 205.305 176.493 205.623 177.71 206.07C178.13 206.22 178.44 206.37 178.65 206.45L178.98 206.56L178.67 206.4C178.371 206.243 178.064 206.103 177.75 205.98C176.541 205.484 175.28 205.129 173.99 204.92C169.197 204.237 164.308 204.887 159.86 206.8C156.794 208.059 153.841 209.574 151.03 211.33C147.98 213.18 144.82 215.33 141.36 217.33C137.785 219.473 133.927 221.105 129.9 222.18C125.549 223.246 121.01 223.287 116.64 222.3C114.433 221.804 112.292 221.052 110.26 220.06C108.298 219.06 106.425 217.896 104.66 216.58C101.14 214.04 97.91 211.29 94.33 209.39C92.5979 208.441 90.729 207.766 88.79 207.39C87.8556 207.22 86.9094 207.123 85.96 207.1C85.0434 207.102 84.1281 207.166 83.22 207.29C79.66 207.8 76.51 208.9 73.53 209.37C70.8755 209.864 68.1451 209.772 65.53 209.1C63.5469 208.58 61.6597 207.746 59.94 206.63C58.8615 205.918 57.8565 205.101 56.94 204.19C56.62 203.88 56.41 203.62 56.24 203.46C56.1559 203.354 56.0584 203.26 55.95 203.18Z" fill="#FAFAFA"/>
<path d="M153.37 272.64C153.37 272.76 155.6 271.64 159.37 270.64L160.86 270.29C161.38 270.17 161.93 270.1 162.5 270C163.62 269.78 164.85 269.7 166.13 269.58C168.921 269.417 171.721 269.527 174.49 269.91C177.256 270.346 179.972 271.053 182.6 272.02C183.79 272.51 184.94 272.94 185.95 273.48C186.46 273.74 186.95 273.96 187.43 274.23L188.75 275C192.1 277 193.86 278.71 193.94 278.62C193.561 278.195 193.146 277.804 192.7 277.45C192.206 276.998 191.685 276.577 191.14 276.19C190.5 275.74 189.8 275.19 188.95 274.68C188.517 274.433 188.077 274.163 187.63 273.87C187.17 273.6 186.63 273.36 186.14 273.09C185.14 272.53 183.97 272.09 182.77 271.57C180.118 270.568 177.37 269.84 174.57 269.4C171.765 269.007 168.926 268.907 166.1 269.1C164.868 269.19 163.643 269.35 162.43 269.58C161.86 269.69 161.3 269.76 160.78 269.89L159.28 270.29C158.423 270.511 157.578 270.778 156.75 271.09C156.116 271.303 155.495 271.553 154.89 271.84C154.362 272.063 153.853 272.331 153.37 272.64Z" fill="#FAFAFA"/>
<path d="M129.91 273.37C130.399 273.838 130.848 274.346 131.25 274.89C132.241 276.438 132.836 278.207 132.98 280.04C133.27 282.36 132.9 285.14 132.98 288.27C132.983 289.925 133.263 291.568 133.81 293.13C134.456 294.784 135.368 296.321 136.51 297.68C138.82 300.49 141.58 302.57 143.83 304.68C145.897 306.453 147.596 308.613 148.83 311.04C149.65 312.688 150.061 314.51 150.03 316.35C149.978 317.021 149.892 317.688 149.77 318.35C149.853 318.192 149.917 318.024 149.96 317.85C150.099 317.36 150.19 316.858 150.23 316.35C150.347 314.466 149.982 312.584 149.17 310.88C147.957 308.382 146.257 306.152 144.17 304.32C141.91 302.17 139.17 300.09 136.93 297.32C135.821 296.006 134.932 294.52 134.3 292.92C133.765 291.414 133.485 289.829 133.47 288.23C133.4 285.15 133.74 282.33 133.39 279.97C133.212 278.089 132.547 276.286 131.46 274.74C131.046 274.179 130.518 273.712 129.91 273.37Z" fill="#FAFAFA"/>
<path d="M90.87 299.18C90.9601 298.717 91.0236 298.25 91.06 297.78C91.2494 296.527 91.6917 295.326 92.36 294.25C93.381 292.654 94.528 291.143 95.79 289.73C97.19 288.11 98.85 286.4 100.33 284.38C102.829 280.882 104.404 276.809 104.91 272.54C105.083 271.263 105.19 269.978 105.23 268.69C105.275 268.218 105.275 267.742 105.23 267.27C105.129 267.734 105.072 268.206 105.06 268.68C104.97 269.58 104.84 270.89 104.58 272.49C103.978 276.664 102.387 280.635 99.94 284.07C98.49 286.07 96.84 287.77 95.46 289.42C94.1955 290.861 93.0642 292.414 92.08 294.06C91.411 295.189 91.0043 296.453 90.89 297.76C90.8697 298.093 90.8697 298.427 90.89 298.76C90.84 299.08 90.85 299.18 90.87 299.18Z" fill="#FAFAFA"/>
<path d="M35.4801 252.64C35.5172 252.963 35.5979 253.279 35.7201 253.58C35.8263 253.942 35.9566 254.296 36.1101 254.64C36.2801 255.05 36.4601 255.52 36.7201 256.01C37.3037 257.181 37.9897 258.299 38.7701 259.35C39.739 260.63 40.8308 261.812 42.0301 262.88C43.2405 263.931 44.55 264.862 45.9401 265.66C47.0795 266.3 48.2743 266.835 49.5101 267.26C50.3406 267.557 51.1933 267.787 52.0601 267.95C52.3848 268.043 52.7229 268.08 53.0601 268.06C53.0601 267.97 51.7301 267.71 49.6801 266.92C48.4853 266.45 47.3285 265.888 46.2201 265.24C44.8728 264.435 43.598 263.515 42.4101 262.49C41.2382 261.443 40.1607 260.296 39.1901 259.06C38.4091 258.042 37.7071 256.965 37.0901 255.84C36.0001 253.92 35.5801 252.61 35.4801 252.64Z" fill="#FAFAFA"/>
<path d="M0.00012207 254.41C0.100121 254.49 1.28013 252.67 3.76013 250.27C5.2091 248.866 6.78593 247.601 8.47012 246.49C10.5387 245.135 12.7483 244.008 15.0601 243.13C18.33 241.879 21.7744 241.143 25.2701 240.95C27.567 240.858 29.8674 240.985 32.1401 241.33H32.3801L32.2401 241.14C31.9422 240.674 31.6078 240.233 31.2401 239.82C31.471 240.325 31.7489 240.807 32.0701 241.26L32.1801 241.1C29.901 240.632 27.5761 240.424 25.2501 240.48C21.6871 240.617 18.1706 241.337 14.8401 242.61C12.4962 243.503 10.2618 244.661 8.18013 246.06C6.48294 247.202 4.90498 248.512 3.47012 249.97C2.90889 250.521 2.38127 251.106 1.89012 251.72L1.27013 252.45C1.10013 252.69 0.940125 252.91 0.800125 253.12C0.495342 253.525 0.227596 253.957 0.00012207 254.41Z" fill="#FAFAFA"/>
<path d="M81.3901 94.5601C81.6901 98.5601 79.0201 102.21 76.3401 105.23C73.6601 108.25 70.6601 111.42 70.0801 115.43C69.0801 122.53 76.0001 129.12 74.5701 136.15C73.8001 139.92 70.7101 142.94 70.1701 146.75C69.6301 150.56 71.6101 154.03 74.0501 156.83C76.4901 159.63 79.4801 161.97 81.6401 165C83.9201 168.19 85.1701 172 86.8101 175.53C88.4501 179.06 90.6401 182.62 94.0901 184.53C99.2601 187.34 106.52 186.02 110.49 190.37C114.46 194.72 113.12 202.26 117.84 205.43" fill="#263238"/>
<path d="M143.44 100.74C143.55 97.0699 140.16 94.2499 136.75 92.8999C133.34 91.5499 129.56 91.0599 126.52 89.0099C123.83 87.1999 122.02 84.3799 119.74 82.0699C116.903 79.2576 113.382 77.2327 109.525 76.1946C105.667 75.1565 101.606 75.1412 97.7401 76.1499C93.9005 77.2437 90.4117 79.318 87.6168 82.169C84.822 85.0199 82.8173 88.5493 81.8001 92.4099C80.4901 97.6299 81.3902 103.79 85.5002 107.26C90.2702 111.26 97.3401 110.39 103.45 109.14C109.56 107.89 116.45 106.65 121.59 110.24C124.66 112.41 126.43 115.93 128.31 119.19C130.19 122.45 132.55 125.77 136.11 127C139.67 128.23 144.5 126.11 144.64 122.35" fill="#263238"/>
<path d="M129 101.49C130.525 101.653 131.934 102.382 132.947 103.534C133.96 104.686 134.504 106.176 134.47 107.71L130.82 190.46C130.66 200.23 116.57 200.95 106.1 200.71V199.71C95.5399 199.47 95.0099 200.07 94.8799 190.78C94.6599 175.24 94.6699 169.41 94.6699 169.5C94.6699 169.59 81.32 167.25 78.59 149.83C77.24 141.16 77.6999 126.96 78.4599 115.35C79.1399 104.9 86.0999 92.09 96.5099 93.22L129 101.49Z" fill="#FFBE9D"/>
<path d="M81.7601 125.28C81.7544 125.862 81.9757 126.424 82.3771 126.846C82.7784 127.268 83.3283 127.517 83.9101 127.54C84.1937 127.563 84.479 127.53 84.7494 127.441C85.0198 127.353 85.2699 127.211 85.485 127.025C85.7001 126.839 85.8759 126.611 86.0021 126.357C86.1283 126.102 86.2024 125.824 86.2201 125.54C86.2258 124.958 86.0045 124.396 85.6031 123.974C85.2018 123.552 84.6519 123.303 84.0701 123.28C83.7868 123.258 83.502 123.293 83.2322 123.382C82.9623 123.471 82.7128 123.612 82.498 123.798C82.2832 123.984 82.1074 124.211 81.9807 124.465C81.8541 124.72 81.7791 124.997 81.7601 125.28Z" fill="#263238"/>
<path d="M81.5301 122.73C81.8001 123.02 83.5301 121.73 85.9001 121.78C88.2701 121.83 90.0701 123 90.3301 122.7C90.4601 122.57 90.1701 122.05 89.4101 121.49C88.3728 120.765 87.1357 120.381 85.8701 120.39C84.6185 120.381 83.3962 120.769 82.3801 121.5C81.6401 122.07 81.3901 122.59 81.5301 122.73Z" fill="#263238"/>
<path d="M105.7 125.9C105.692 126.483 105.912 127.046 106.314 127.468C106.716 127.891 107.267 128.139 107.85 128.16C108.134 128.183 108.419 128.149 108.689 128.061C108.96 127.973 109.21 127.831 109.425 127.645C109.64 127.459 109.816 127.231 109.942 126.976C110.068 126.721 110.142 126.444 110.16 126.16C110.166 125.578 109.944 125.016 109.543 124.594C109.142 124.172 108.592 123.923 108.01 123.9C107.726 123.877 107.441 123.91 107.171 123.999C106.9 124.087 106.65 124.229 106.435 124.415C106.22 124.601 106.044 124.828 105.918 125.083C105.792 125.338 105.718 125.616 105.7 125.9Z" fill="#263238"/>
<path d="M105.16 123.23C105.43 123.52 107.16 122.23 109.53 122.28C111.9 122.33 113.7 123.5 113.96 123.21C114.09 123.07 113.81 122.55 113.04 121.99C112.003 121.265 110.766 120.881 109.5 120.89C108.249 120.881 107.026 121.269 106.01 122C105.27 122.57 105.02 123.1 105.16 123.23Z" fill="#263238"/>
<path d="M96.3901 141.04C96.3901 140.9 94.9101 140.64 92.4901 140.32C91.8801 140.26 91.3001 140.13 91.1901 139.72C91.1429 139.085 91.2893 138.45 91.6101 137.9C92.1901 136.41 92.7901 134.9 93.4301 133.23C95.9701 126.58 97.8101 121.11 97.5401 121.01C97.2701 120.91 94.9901 126.22 92.4601 132.87C91.8501 134.51 91.2601 136.07 90.7101 137.57C90.3161 138.305 90.2024 139.158 90.3901 139.97C90.4759 140.187 90.6108 140.381 90.7843 140.537C90.9579 140.694 91.1652 140.807 91.3901 140.87C91.7164 140.959 92.0521 141.009 92.3901 141.02C93.7174 141.193 95.0612 141.2 96.3901 141.04Z" fill="#263238"/>
<path d="M94.67 169.48C102.871 169.623 110.951 167.487 118.01 163.31C118.01 163.31 112.33 175.26 94.89 173.59L94.67 169.48Z" fill="#EB996E"/>
<path d="M97.4001 146.83C97.8581 146.256 98.4545 145.808 99.1332 145.528C99.812 145.249 100.551 145.146 101.28 145.23C101.81 145.281 102.324 145.437 102.793 145.69C103.262 145.942 103.676 146.286 104.01 146.7C104.329 147.102 104.519 147.593 104.553 148.105C104.587 148.618 104.464 149.129 104.2 149.57C103.811 150.001 103.303 150.306 102.74 150.446C102.178 150.587 101.586 150.557 101.04 150.36C99.9073 149.951 98.8648 149.326 97.9701 148.52C97.7017 148.327 97.4712 148.086 97.29 147.81C97.2023 147.676 97.1555 147.52 97.1555 147.36C97.1555 147.2 97.2023 147.044 97.29 146.91" fill="#EB996E"/>
<path d="M103.46 142.71C103.07 142.71 103.06 145.3 100.82 147.15C98.5799 149 95.8199 148.7 95.8199 149.07C95.8199 149.23 96.4399 149.57 97.6099 149.61C99.138 149.632 100.625 149.115 101.81 148.15C102.951 147.228 103.687 145.897 103.86 144.44C103.93 143.35 103.64 142.7 103.46 142.71Z" fill="#263238"/>
<path d="M104.08 119.01C104.32 119.67 106.72 119.36 109.54 119.71C112.36 120.06 114.64 120.83 115.02 120.25C115.18 119.97 114.79 119.35 113.87 118.71C112.648 117.921 111.257 117.431 109.81 117.28C108.367 117.107 106.904 117.278 105.54 117.78C104.51 118.18 103.98 118.7 104.08 119.01Z" fill="#263238"/>
<path d="M82.4301 115.77C82.8501 116.32 84.5101 115.77 86.5001 115.77C88.4901 115.77 90.1701 116.15 90.5601 115.58C90.7301 115.3 90.4701 114.75 89.7301 114.23C88.75 113.595 87.5968 113.281 86.4301 113.33C85.2594 113.345 84.1228 113.726 83.1801 114.42C82.4701 114.94 82.2701 115.5 82.4301 115.77Z" fill="#263238"/>
<path d="M140.91 184.79C141.03 180.4 141.13 175.86 139.37 171.79C137.61 167.72 133.52 164.33 128.85 164.61C125.57 164.81 122.7 166.73 119.72 168.09C114.688 170.382 109.102 171.177 103.63 170.38C101.383 169.907 99.1084 169.573 96.8201 169.38C95.6721 169.287 94.5174 169.437 93.4316 169.821C92.3459 170.206 91.3537 170.815 90.5201 171.61C88.7101 173.61 88.8101 176.54 89.0201 179.14C89.1669 183.218 89.8185 187.262 90.9601 191.18C92.1721 195.186 94.7937 198.617 98.3401 200.84C103.49 203.84 110.08 203.3 116.14 202.52C121.82 201.8 127.64 200.87 132.6 198.1C137.56 195.33 141.52 190.28 141.18 184.92" fill="#2982FF"/>
<path d="M129.27 199.39C129.27 199.39 129.39 199.39 129.61 199.24C129.907 199.038 130.167 198.788 130.38 198.5C131.091 197.395 131.502 196.123 131.57 194.81C131.91 191.58 132.44 187.11 132.49 182.12C132.513 179.78 132.376 177.441 132.08 175.12C131.887 173.193 131.324 171.322 130.42 169.61C129.783 168.46 128.873 167.484 127.77 166.77C127.473 166.58 127.158 166.42 126.83 166.29C126.603 166.21 126.483 166.18 126.47 166.2C126.47 166.2 126.93 166.41 127.66 166.94C128.68 167.691 129.515 168.666 130.1 169.79C131.66 172.62 131.95 177.22 131.97 182.13C131.99 187.04 131.45 191.55 131.2 194.78C131.165 196.05 130.822 197.292 130.2 198.4C129.936 198.771 129.624 199.104 129.27 199.39Z" fill="#FAFAFA"/>
<path d="M117.53 202.72C117.542 202.292 117.515 201.864 117.45 201.44C117.35 200.51 117.22 199.35 117.07 197.97C116.74 195.04 116.28 190.97 115.84 186.53C115.4 182.09 115.03 178.01 114.78 175.07C114.65 173.69 114.55 172.52 114.46 171.6C114.45 171.171 114.389 170.745 114.28 170.33C114.239 170.756 114.239 171.184 114.28 171.61C114.28 172.43 114.35 173.61 114.43 175.1C114.59 178.04 114.89 182.1 115.34 186.58C115.79 191.06 116.34 195.1 116.73 198.02C116.94 199.47 117.12 200.65 117.27 201.46C117.306 201.889 117.393 202.312 117.53 202.72Z" fill="#FAFAFA"/>
<path d="M100.27 170.6C100.149 170.567 100.021 170.567 99.8999 170.6C99.5486 170.686 99.2272 170.866 98.9699 171.12C98.1141 172.122 97.6085 173.375 97.5299 174.69C97.2512 176.584 97.1908 178.503 97.3499 180.41C97.4999 182.56 97.8199 184.89 98.1499 187.34C98.4412 189.659 98.9228 191.95 99.5899 194.19C100.15 196.023 100.961 197.77 102 199.38C102.706 200.462 103.557 201.441 104.53 202.29C104.793 202.521 105.07 202.734 105.36 202.93C105.455 203.011 105.563 203.075 105.68 203.12C104.367 201.971 103.219 200.645 102.27 199.18C101.289 197.576 100.529 195.847 100.01 194.04C99.3758 191.822 98.9144 189.559 98.6299 187.27C98.2999 184.82 97.9599 182.49 97.7899 180.37C97.6161 178.5 97.6362 176.616 97.8499 174.75C97.8929 173.493 98.3186 172.279 99.0699 171.27C99.4023 170.943 99.8169 170.711 100.27 170.6Z" fill="#FAFAFA"/>
<path d="M94.2701 169.65C97.9201 171.15 97.8601 177.12 100.59 179.96C104.18 183.68 110.71 181.07 115.4 183.24C121.61 186.12 121.55 195.45 126.79 199.86C130 202.56 134.88 203.08 137.41 206.44C139.94 209.8 138.41 215.77 134.32 217.37L130.45 214.92C131.56 216.71 130.99 219.16 129.66 220.8C128.218 222.347 126.471 223.579 124.53 224.42C122.18 224.16 120.89 221.56 120.37 219.25C119.85 216.94 119.51 214.33 117.67 212.84C115.45 211.05 112.05 211.75 109.58 210.33C104.69 207.51 106.77 199.1 102.42 195.5C99.6601 193.22 95.5201 193.9 92.2201 192.5C87.4701 190.5 85.5701 184.76 85.0701 179.63C84.5701 174.5 84.8501 169.02 82.3101 164.53" fill="#263238"/>
<path d="M141.17 158.8C138.763 159.264 136.281 159.159 133.921 158.494C131.562 157.829 129.39 156.622 127.58 154.97C125.798 153.285 124.436 151.206 123.601 148.9C122.765 146.594 122.481 144.125 122.77 141.69C123.31 137.42 125.61 133.06 124.13 129.01C122.13 123.66 114.66 122.01 112.67 116.67C111.52 113.56 112.55 109.93 111.24 106.89C110.01 104.03 107 102.38 104.07 101.32C101.14 100.26 97.9999 99.5299 95.5399 97.6199C93.0799 95.7099 91.5399 92.0999 93.1299 89.4099C106.139 90.9728 118.915 94.0779 131.19 98.6599C134.04 99.7199 137.02 101 138.7 103.53C140.38 106.06 140.4 109.66 140.25 112.86L138.06 159.79" fill="#263238"/>
<path d="M150.56 173.28C150.619 172.893 150.639 172.501 150.62 172.11C150.587 170.982 150.346 169.87 149.91 168.83C149.218 167.184 148.221 165.684 146.97 164.41C145.296 162.749 143.381 161.35 141.29 160.26C139.01 158.99 136.4 157.84 133.78 156.26C130.938 154.728 128.546 152.481 126.84 149.74C125.969 148.249 125.503 146.556 125.49 144.83C125.572 143.015 125.836 141.212 126.28 139.45C126.786 137.577 126.911 135.622 126.65 133.7C126.467 132.701 126.045 131.761 125.42 130.96C124.777 130.159 123.994 129.482 123.11 128.96C121.36 127.96 119.47 127.33 117.74 126.51C116.01 125.824 114.54 124.609 113.54 123.04C112.726 121.435 112.305 119.66 112.31 117.86C112.24 116.08 112.31 114.32 112.31 112.59C112.333 110.892 112.073 109.202 111.54 107.59C111.402 107.198 111.227 106.82 111.02 106.46C110.833 106.108 110.615 105.774 110.37 105.46C109.884 104.826 109.308 104.266 108.66 103.8C106.11 101.95 103.2 101.37 100.71 100.75C98.4237 100.328 96.2321 99.4982 94.2399 98.2999C92.7763 97.3395 91.6857 95.9066 91.1499 94.2399C90.7914 93.1898 90.7669 92.0545 91.0799 90.9899C91.2146 90.6288 91.3681 90.275 91.5399 89.9299C91.2982 90.2293 91.1088 90.5674 90.9799 90.9299C90.6337 92.0163 90.6337 93.1835 90.9799 94.2699C91.5028 96.0047 92.6038 97.5081 94.0999 98.5299C96.1129 99.7675 98.3313 100.634 100.65 101.09C103.15 101.73 106 102.34 108.44 104.09C109.044 104.547 109.585 105.082 110.05 105.68C110.281 105.996 110.485 106.33 110.66 106.68C110.85 107.022 111.011 107.38 111.14 107.75C111.653 109.321 111.896 110.968 111.86 112.62C111.86 114.32 111.77 116.08 111.86 117.9C111.851 119.784 112.293 121.642 113.15 123.32C114.199 124.981 115.746 126.269 117.57 127C119.383 127.72 121.158 128.531 122.89 129.43C123.721 129.9 124.456 130.521 125.06 131.26C125.629 132.001 126.019 132.863 126.2 133.78C126.442 135.636 126.316 137.522 125.83 139.33C125.383 141.125 125.122 142.961 125.05 144.81C125.061 146.623 125.555 148.401 126.48 149.96C128.236 152.763 130.694 155.058 133.61 156.62C136.27 158.15 138.89 159.28 141.16 160.53C143.234 161.572 145.138 162.92 146.81 164.53C148.072 165.758 149.09 167.213 149.81 168.82C150.257 169.833 150.527 170.916 150.61 172.02C150.57 172.87 150.53 173.28 150.56 173.28Z" fill="#263238"/>
<path d="M99.78 185.23C98.6512 185.399 97.5115 185.486 96.37 185.49C93.2525 185.382 90.2362 184.356 87.7 182.54C85.9473 181.315 84.4804 179.725 83.4 177.88C82.2554 175.698 81.5167 173.326 81.22 170.88C80.75 168.33 80.36 165.51 78.92 162.95C77.48 160.39 74.83 158.71 72.64 156.71C70.4325 154.806 68.99 152.166 68.58 149.28C68.3876 147.921 68.4214 146.539 68.68 145.19C68.9445 143.9 69.4137 142.661 70.07 141.52C71.35 139.28 72.96 137.29 73.7 135.01C74.3759 132.921 74.6075 130.714 74.38 128.53C73.9902 125.408 73.1691 122.356 71.94 119.46C71.52 118.46 71.18 117.64 70.94 117.11C70.8332 116.831 70.6992 116.563 70.54 116.31C70.54 116.31 70.63 116.6 70.84 117.15L71.75 119.53C72.8969 122.417 73.6568 125.444 74.01 128.53C74.2156 130.657 73.9702 132.804 73.29 134.83C72.57 137.03 70.98 138.97 69.65 141.26C68.9623 142.444 68.4694 143.73 68.19 145.07C67.9178 146.474 67.8806 147.914 68.08 149.33C68.2876 150.795 68.7478 152.213 69.44 153.52C70.1714 154.86 71.1366 156.059 72.29 157.06C74.54 159.06 77.09 160.72 78.48 163.18C79.87 165.64 80.27 168.38 80.74 170.94C81.0661 173.429 81.8421 175.838 83.03 178.05C84.1547 179.935 85.6767 181.553 87.49 182.79C90.0919 184.62 93.1893 185.614 96.37 185.64C96.8647 185.652 97.3595 185.625 97.85 185.56C98.21 185.532 98.5675 185.478 98.92 185.4C99.2109 185.367 99.4985 185.31 99.78 185.23Z" fill="#263238"/>
<path d="M39.5199 291.53C43.5882 291.527 47.5871 290.475 51.1306 288.477C54.6742 286.478 57.6427 283.6 59.7499 280.12L183.58 77.6499C183.73 77.4057 183.83 77.1344 183.875 76.8514C183.92 76.5684 183.909 76.2793 183.842 76.0007C183.775 75.722 183.654 75.4593 183.485 75.2275C183.317 74.9958 183.104 74.7995 182.86 74.6499C182.365 74.3507 181.772 74.2596 181.209 74.3963C180.647 74.5331 180.162 74.8867 179.86 75.3799L56.0299 277.84C53.4075 282.176 49.1863 285.309 44.2761 286.562C39.3658 287.815 34.1598 287.089 29.7799 284.54C27.4929 283.236 25.4975 281.477 23.9168 279.372C22.3362 277.267 21.2039 274.86 20.59 272.3C19.9517 269.741 19.847 267.078 20.2822 264.477C20.7175 261.876 21.6834 259.392 23.1199 257.18L26.8799 251.31C27.0339 251.07 27.1389 250.801 27.189 250.521C27.2391 250.24 27.2334 249.952 27.1721 249.673C27.1108 249.394 26.9951 249.131 26.8318 248.897C26.6684 248.663 26.4605 248.463 26.2199 248.31C25.9797 248.156 25.7115 248.051 25.4306 248.001C25.1497 247.951 24.8617 247.956 24.5831 248.018C24.3044 248.079 24.0406 248.195 23.8067 248.358C23.5728 248.521 23.3734 248.729 23.2199 248.97L19.4499 254.83C17.7005 257.536 16.5238 260.572 15.9924 263.75C15.461 266.928 15.5861 270.182 16.3599 273.31C17.1102 276.446 18.4957 279.396 20.4306 281.976C22.3656 284.556 24.809 286.711 27.6099 288.31C31.2275 290.412 35.3358 291.523 39.5199 291.53Z" fill="#455A64"/>
<path d="M27.8499 25.77C27.8499 25.77 71.2999 28.4 92.4899 71.46C92.4899 71.46 140.39 67.51 155.13 106.7C155.13 106.7 210.59 100.41 222.49 151.55C222.49 151.55 266.88 149.91 269.49 190.35C269.49 190.35 299.44 191.51 301.49 221.96C301.49 221.96 326.65 97.89 233.95 32.73C135.9 -36.13 27.8499 25.77 27.8499 25.77Z" fill="#F97F29"/>
<path d="M81.55 290.87L86.77 267.69L81.14 265.36C78.4213 263.291 75.8914 260.986 73.58 258.47C72.3833 257.186 71.4129 255.708 70.71 254.1C69.7578 252.137 69.0846 250.05 68.71 247.9C68.56 245.9 66.06 245.12 65.09 246.66C64.12 248.2 64.39 253.74 67.52 259.4C69.63 263.22 66.01 262.73 62.38 261.59C61.072 261.194 59.6643 261.292 58.4239 261.866C57.1834 262.439 56.1964 263.447 55.65 264.7L52.32 272.31C51.8176 273.456 51.5551 274.693 51.5488 275.945C51.5425 277.197 51.7925 278.436 52.2834 279.588C52.7743 280.739 53.4957 281.778 54.4032 282.64C55.3106 283.502 56.385 284.169 57.56 284.6L60.38 285.6L81.56 290.84" fill="#FFBE9D"/>
<path d="M275.62 126.26C275.62 126.36 277.31 126.33 279.98 126.76C281.543 127.022 283.084 127.399 284.59 127.89C286.428 128.503 288.21 129.269 289.92 130.18C291.613 131.125 293.225 132.209 294.74 133.42C295.964 134.422 297.114 135.511 298.18 136.68C299.99 138.68 300.88 140.14 300.97 140.08C300.813 139.727 300.619 139.391 300.39 139.08C300.148 138.682 299.884 138.299 299.6 137.93C299.27 137.5 298.92 136.99 298.46 136.48C297.414 135.259 296.27 134.125 295.04 133.09C293.523 131.835 291.892 130.724 290.17 129.77C288.436 128.835 286.618 128.065 284.74 127.47C283.204 127.005 281.632 126.67 280.04 126.47C279.36 126.35 278.74 126.34 278.2 126.29C277.737 126.261 277.273 126.261 276.81 126.29C276.416 126.231 276.016 126.221 275.62 126.26Z" fill="#FAFAFA"/>
<path d="M236.49 104.96C236.49 104.96 237.2 104.72 238.49 104.29C240.28 103.696 242.121 103.271 243.99 103.02C246.757 102.653 249.561 102.68 252.32 103.1C255.694 103.609 258.951 104.713 261.94 106.36C264.907 108.056 267.549 110.267 269.74 112.89C271.535 115.026 273.016 117.406 274.14 119.96C274.905 121.681 275.501 123.473 275.92 125.31C276.039 125.984 276.193 126.652 276.38 127.31C276.396 127.13 276.396 126.95 276.38 126.77C276.33 126.42 276.3 125.9 276.16 125.24C275.81 123.37 275.26 121.543 274.52 119.79C273.427 117.175 271.954 114.736 270.15 112.55C267.941 109.864 265.26 107.604 262.24 105.88C259.196 104.2 255.872 103.088 252.43 102.6C249.626 102.182 246.775 102.182 243.97 102.6C242.086 102.875 240.238 103.358 238.46 104.04C237.83 104.26 237.36 104.51 237.04 104.65C236.838 104.717 236.652 104.822 236.49 104.96Z" fill="#FAFAFA"/>
<path d="M186.04 64.3799C186.04 64.4399 187.04 64.1099 188.87 63.7599C191.451 63.2786 194.087 63.1642 196.7 63.4199C198.503 63.5882 200.291 63.889 202.05 64.3199C204.059 64.8341 206.024 65.5028 207.93 66.3199C210.042 67.2222 212.07 68.3097 213.99 69.5699C216.061 70.9004 217.991 72.4383 219.75 74.1599C223.125 77.5335 226.074 81.3083 228.53 85.3999C230.55 88.7372 232.386 92.1824 234.03 95.7199C235.45 98.7199 236.53 101.21 237.28 102.92C237.64 103.74 237.94 104.39 238.16 104.92C238.256 105.15 238.366 105.374 238.49 105.59C238.439 105.345 238.358 105.106 238.25 104.88C238.05 104.37 237.79 103.71 237.47 102.88C236.77 101.15 235.74 98.6499 234.37 95.6099C232.769 92.0283 230.956 88.5455 228.94 85.1799C226.486 81.0401 223.522 77.2237 220.12 73.8199C218.333 72.0786 216.373 70.5239 214.27 69.1799C212.322 67.9117 210.263 66.8207 208.12 65.9199C206.176 65.0954 204.17 64.4267 202.12 63.9199C200.338 63.4992 198.526 63.215 196.7 63.0699C194.056 62.8485 191.394 63.0204 188.8 63.5799C188.094 63.7205 187.399 63.911 186.72 64.1499C186.487 64.2077 186.26 64.2846 186.04 64.3799Z" fill="#FAFAFA"/>
<path d="M137.9 34.63C137.9 34.68 138.76 34.39 140.31 33.99C142.504 33.4475 144.751 33.1458 147.01 33.09C154.495 32.9995 161.826 35.2129 168.01 39.43C169.768 40.6237 171.438 41.9403 173.01 43.37C174.458 44.7177 175.82 46.1538 177.09 47.67C179.233 50.2535 181.119 53.04 182.72 55.99C184.09 58.5 185.05 60.62 185.72 62.09C186.05 62.83 186.27 63.41 186.45 63.8C186.52 64.0036 186.614 64.1982 186.73 64.38C186.685 64.1682 186.621 63.9607 186.54 63.76C186.4 63.36 186.21 62.76 185.91 62.02C185.093 59.8949 184.147 57.8212 183.08 55.81C181.508 52.8135 179.638 49.9826 177.5 47.36C176.227 45.8215 174.857 44.3653 173.4 43C171.833 41.5473 170.161 40.2104 168.4 39C162.129 34.7122 154.664 32.5143 147.07 32.72C144.788 32.8071 142.525 33.1697 140.33 33.8C139.733 33.9615 139.146 34.1551 138.57 34.38C138.339 34.4417 138.115 34.5254 137.9 34.63Z" fill="#FAFAFA"/>
<path d="M87.58 11.54C87.58 11.54 88.38 11.3 89.8 10.86C91.8158 10.2535 93.8801 9.82191 95.97 9.57C99.0626 9.18698 102.192 9.20379 105.28 9.62C109.061 10.1152 112.738 11.2159 116.17 12.88C119.588 14.5773 122.714 16.8086 125.43 19.49C127.645 21.6826 129.57 24.1492 131.16 26.83C132.242 28.6369 133.165 30.5339 133.92 32.5C134.44 33.89 134.69 34.68 134.74 34.67C134.714 34.4699 134.671 34.2724 134.61 34.08C134.49 33.7 134.37 33.08 134.11 32.43C133.424 30.4189 132.543 28.4796 131.48 26.64C129.917 23.8989 127.993 21.3798 125.76 19.15C123.028 16.4084 119.866 14.1317 116.4 12.41C112.914 10.7381 109.178 9.64704 105.34 9.18C102.211 8.78309 99.0428 8.80664 95.92 9.25001C93.8175 9.5349 91.7477 10.0239 89.74 10.71C89.03 10.94 88.5 11.19 88.13 11.33C87.9412 11.3849 87.7573 11.4551 87.58 11.54Z" fill="#FAFAFA"/>
<path d="M70.8401 7.04003C71.4464 7.17744 72.0611 7.27431 72.6801 7.33002C74.134 7.6054 75.5262 8.14063 76.7901 8.91003C78.0467 9.68342 79.1515 10.6798 80.0501 11.85C80.3841 12.3732 80.7515 12.8743 81.1501 13.35C81.01 12.729 80.7371 12.1456 80.3501 11.64C79.4988 10.3525 78.3758 9.2671 77.0602 8.46003C75.7428 7.65352 74.2649 7.14496 72.7301 6.97002C72.1024 6.85797 71.4579 6.88185 70.8401 7.04003Z" fill="#FAFAFA"/>
<path d="M273.44 167.41C273.44 167.54 275.59 167.29 279.02 167.71L280.35 167.9C280.82 167.97 281.29 168.1 281.79 168.2C282.84 168.434 283.878 168.721 284.9 169.06C287.23 169.863 289.469 170.909 291.58 172.18C293.665 173.5 295.609 175.032 297.38 176.75C298.144 177.506 298.865 178.304 299.54 179.14C299.85 179.54 300.18 179.9 300.45 180.28L301.23 181.39C303.14 184.26 303.89 186.29 304 186.24C303.864 185.752 303.687 185.277 303.47 184.82C303.251 184.271 302.998 183.736 302.71 183.22C302.359 182.529 301.965 181.861 301.53 181.22L300.78 180.08C300.51 179.68 300.19 179.31 299.88 178.9C299.204 178.043 298.483 177.222 297.72 176.44C295.943 174.67 293.974 173.103 291.85 171.77C289.705 170.477 287.425 169.424 285.05 168.63C284.009 168.299 282.951 168.025 281.88 167.81C281.37 167.72 280.88 167.59 280.42 167.53L279.06 167.37C278.28 167.281 277.495 167.238 276.71 167.24C276.121 167.192 275.529 167.192 274.94 167.24C274.436 167.256 273.935 167.313 273.44 167.41Z" fill="#FAFAFA"/>
<path d="M227.33 138.12C227.546 138.118 227.76 138.091 227.97 138.04C228.38 137.98 228.97 137.84 229.76 137.75C231.967 137.415 234.198 137.265 236.43 137.3C239.735 137.341 243.023 137.788 246.22 138.63C250.123 139.653 253.849 141.261 257.27 143.4C260.68 145.577 263.742 148.257 266.35 151.35C268.487 153.874 270.304 156.651 271.76 159.62C272.751 161.616 273.577 163.69 274.23 165.82C274.48 166.57 274.61 167.18 274.73 167.57C274.778 167.78 274.848 167.985 274.94 168.18C274.923 167.968 274.889 167.757 274.84 167.55C274.74 167.14 274.65 166.55 274.42 165.77C273.842 163.598 273.062 161.486 272.09 159.46C270.664 156.437 268.86 153.608 266.72 151.04C264.099 147.89 261.005 145.164 257.55 142.96C254.073 140.79 250.282 139.171 246.31 138.16C243.071 137.336 239.742 136.923 236.4 136.93C234.152 136.929 231.909 137.137 229.7 137.55C228.91 137.67 228.32 137.85 227.91 137.94C227.711 137.979 227.516 138.04 227.33 138.12Z" fill="#FAFAFA"/>
<path d="M163.27 94.3801C163.566 94.3686 163.86 94.3318 164.15 94.2701C164.73 94.1901 165.58 94.0001 166.68 93.8801C169.779 93.4396 172.914 93.3023 176.04 93.47C178.19 93.5994 180.326 93.897 182.43 94.36C184.853 94.8763 187.228 95.5955 189.53 96.5101C194.79 98.6366 199.817 101.301 204.53 104.46C206.961 106.111 209.276 107.925 211.46 109.89C213.484 111.734 215.384 113.708 217.15 115.8C220.15 119.34 222.746 123.204 224.89 127.32C226.342 130.095 227.588 132.973 228.62 135.93C228.99 136.93 229.22 137.8 229.41 138.35C229.488 138.641 229.588 138.925 229.71 139.2C229.67 138.904 229.603 138.613 229.51 138.33C229.35 137.76 229.16 136.92 228.81 135.86C227.849 132.865 226.649 129.952 225.22 127.15C223.108 122.981 220.525 119.069 217.52 115.49C215.748 113.365 213.838 111.361 211.8 109.49C209.598 107.502 207.258 105.671 204.8 104.01C200.045 100.819 194.967 98.1373 189.65 96.0101C187.322 95.0995 184.919 94.3903 182.47 93.8901C180.342 93.4426 178.182 93.1617 176.01 93.05C172.862 92.9121 169.708 93.1065 166.6 93.6301C165.5 93.7901 164.66 94.0101 164.08 94.1201C163.804 94.1886 163.534 94.2755 163.27 94.3801Z" fill="#FAFAFA"/>
<path d="M100.38 61.35C100.642 61.3392 100.903 61.3058 101.16 61.25C101.66 61.18 102.4 61.01 103.37 60.89C106.078 60.4863 108.812 60.2825 111.55 60.28C115.613 60.2757 119.665 60.7218 123.63 61.61C125.97 62.1188 128.272 62.787 130.52 63.61C132.93 64.4843 135.27 65.5407 137.52 66.77C141.908 69.1139 146.009 71.9596 149.74 75.25C152.772 77.9483 155.423 81.0467 157.62 84.46C159.094 86.7715 160.355 89.2114 161.39 91.75C161.78 92.64 162 93.36 162.2 93.83C162.28 94.0793 162.384 94.3204 162.51 94.55C162.454 94.2963 162.384 94.0459 162.3 93.8C162.13 93.31 161.94 92.58 161.58 91.67C160.616 89.0884 159.396 86.6095 157.94 84.27C155.765 80.7898 153.113 77.6323 150.06 74.89C146.316 71.5554 142.191 68.6754 137.77 66.31C135.489 65.0687 133.115 64.0055 130.67 63.13C128.386 62.3 126.047 61.6317 123.67 61.13C119.671 60.2533 115.584 59.8439 111.49 59.91C108.733 59.9349 105.983 60.1925 103.27 60.68C102.27 60.83 101.58 61.03 101.08 61.14C100.841 61.1881 100.606 61.2584 100.38 61.35Z" fill="#FAFAFA"/>
<path d="M53.9801 23.5699C54.2028 23.5937 54.4274 23.5937 54.6501 23.5699C55.0901 23.5699 55.7401 23.5699 56.5701 23.6299C58.9197 23.7267 61.2592 23.9941 63.5701 24.4299C71.2076 25.8605 78.3714 29.1623 84.4201 34.0399C90.4171 38.9783 95.0995 45.3234 98.0501 52.5099C98.9428 54.6844 99.678 56.9201 100.25 59.1999C100.47 59.9999 100.58 60.6399 100.69 61.0599C100.726 61.2825 100.787 61.5005 100.87 61.7099C100.868 61.4843 100.841 61.2597 100.79 61.0399C100.71 60.6099 100.64 59.9599 100.44 59.1499C99.9493 56.8361 99.2635 54.5681 98.3901 52.3699C95.5093 45.0659 90.815 38.6164 84.7501 33.6299C78.6392 28.6966 71.3694 25.4059 63.6301 24.0699C61.3024 23.6578 58.944 23.4437 56.5801 23.4299C55.7501 23.4299 55.1001 23.4299 54.6601 23.4299C54.4287 23.4496 54.2005 23.4966 53.9801 23.5699Z" fill="#FAFAFA"/>
<path d="M40.7301 20.1799C41.3207 20.1937 41.9117 20.1737 42.5001 20.1199C43.9074 20.1057 45.306 20.3427 46.6301 20.8199C47.954 21.3014 49.1827 22.0123 50.2601 22.9199C51.0901 23.6299 51.5201 24.1499 51.5901 24.0999C51.3437 23.5415 50.9745 23.0459 50.5101 22.6499C49.4605 21.6162 48.1977 20.8244 46.8101 20.3299C45.4247 19.8298 43.9483 19.632 42.4801 19.7499C41.871 19.7532 41.2713 19.9005 40.7301 20.1799Z" fill="#FAFAFA"/>
<path d="M268.21 81.93C268.27 82.01 268.8 81.6 269.75 81.15C270.983 80.5824 272.334 80.3184 273.69 80.38C275.053 80.4735 276.387 80.8122 277.63 81.38C278.13 81.6653 278.656 81.903 279.2 82.09C278.804 81.6625 278.324 81.3219 277.79 81.09C276.537 80.3916 275.142 79.9848 273.71 79.9C272.266 79.8299 270.832 80.177 269.58 80.9C269.051 81.1348 268.582 81.487 268.21 81.93Z" fill="#FAFAFA"/>
<path d="M240.9 71.2601C242.454 70.6253 244.056 70.1137 245.69 69.7301C249.66 68.9076 253.784 69.2835 257.54 70.8101C261.268 72.4095 264.439 75.0787 266.65 78.4801C267.525 79.9134 268.291 81.4111 268.94 82.9601C268.871 82.5066 268.747 82.0633 268.57 81.6401C268.155 80.4655 267.616 79.339 266.96 78.2801C264.79 74.738 261.571 71.9594 257.75 70.3301C253.905 68.7471 249.662 68.3977 245.61 69.3301C244.398 69.6143 243.218 70.0232 242.09 70.5501C241.665 70.7358 241.265 70.9743 240.9 71.2601Z" fill="#FAFAFA"/>
<path d="M207.18 44.3399C207.18 44.3399 207.84 44.4099 209.05 44.5199C210.73 44.6726 212.4 44.9264 214.05 45.2799C216.515 45.7967 218.931 46.5261 221.27 47.4599C224.143 48.5733 226.865 50.0449 229.37 51.8399C233.891 55.1698 237.586 59.4945 240.17 64.4799C240.968 66.0009 241.669 67.5707 242.27 69.1799C242.68 70.3099 242.88 70.9499 242.92 70.9399C242.918 70.7759 242.887 70.6136 242.83 70.4599C242.75 70.1499 242.65 69.6899 242.46 69.1199C241.951 67.4818 241.312 65.8868 240.55 64.3499C238.023 59.2488 234.313 54.8258 229.73 51.4499C227.186 49.6403 224.42 48.1649 221.5 47.0599C219.131 46.133 216.68 45.4299 214.18 44.9599C212.498 44.6291 210.793 44.4285 209.08 44.3599C208.47 44.3599 208 44.3599 207.68 44.3599C207.515 44.3272 207.347 44.3205 207.18 44.3399Z" fill="#FAFAFA"/>
<path d="M180.39 19.9399C180.39 20.0599 182.52 20.2999 185.78 21.4399C186.672 21.7405 187.547 22.0911 188.4 22.4899C189.34 22.8799 190.28 23.4199 191.29 23.9599C193.43 25.2055 195.441 26.6628 197.29 28.31C199.106 29.9931 200.751 31.8522 202.2 33.8599C202.82 34.8099 203.46 35.69 203.93 36.59C204.17 37.04 204.43 37.4499 204.64 37.8799L205.22 39.0999C206.65 42.2499 207.08 44.37 207.22 44.34C207.156 43.8391 207.053 43.3442 206.91 42.8599C206.785 42.2785 206.618 41.7069 206.41 41.1499C206.172 40.4011 205.892 39.6665 205.57 38.95C205.4 38.55 205.21 38.13 205.02 37.7C204.83 37.27 204.56 36.8399 204.32 36.3799C203.799 35.4176 203.228 34.483 202.61 33.5799C201.166 31.5258 199.506 29.6317 197.66 27.9299C195.788 26.2549 193.743 24.7833 191.56 23.5399C190.605 23.0035 189.62 22.5227 188.61 22.0999C187.741 21.7135 186.849 21.3795 185.94 21.0999C185.197 20.8443 184.439 20.6339 183.67 20.4699C183.1 20.309 182.518 20.192 181.93 20.1199C181.425 20.0049 180.908 19.9446 180.39 19.9399Z" fill="#FAFAFA"/>
<path d="M169.05 7.97998C169.699 8.348 170.366 8.68179 171.05 8.97998C172.64 9.82956 174.088 10.9228 175.34 12.22C176.587 13.526 177.62 15.0212 178.4 16.65C178.677 17.3527 178.991 18.0403 179.34 18.71C179.276 17.943 179.072 17.1942 178.74 16.5C178.036 14.7809 177.019 13.2075 175.74 11.86C174.449 10.5194 172.92 9.43091 171.23 8.64998C170.549 8.29773 169.811 8.07078 169.05 7.97998Z" fill="#FAFAFA"/>
<path d="M234.87 33.3799C235.249 33.811 235.668 34.206 236.12 34.5599C236.95 35.3199 238.23 36.3699 239.73 37.8999C244.05 42.1048 247.982 46.69 251.48 51.5999C256.675 58.8748 261.143 66.6421 264.82 74.7899C266.954 79.6099 268.81 84.548 270.38 89.5799C272.006 95.0134 273.216 100.563 274 106.18C276.93 129.34 275.2 150.58 273.63 165.75C272.81 173.36 272.01 179.5 271.45 183.75C271.19 185.75 270.98 187.42 270.83 188.64C270.726 189.207 270.676 189.783 270.68 190.36C270.854 189.812 270.978 189.25 271.05 188.68L271.89 183.81C272.58 179.59 273.51 173.46 274.42 165.81C276.21 150.64 278.07 129.32 275.12 106C274.332 100.339 273.101 94.7487 271.44 89.2799C269.848 84.205 267.954 79.2295 265.77 74.3799C262.027 66.2016 257.456 58.4278 252.13 51.1799C248.553 46.2753 244.504 41.7335 240.04 37.6199C238.838 36.4927 237.576 35.4312 236.26 34.4399C235.834 34.0398 235.369 33.6846 234.87 33.3799Z" fill="#263238"/>
<path d="M234.87 33.3799C234.77 33.4499 235.87 34.7499 237.39 37.4599C239.373 41.3379 240.656 45.5357 241.18 49.8599C241.956 56.2854 242.046 62.7752 241.45 69.2199C240.99 76.5299 240.26 84.5599 239.1 92.9299C237.143 107.235 233.955 121.344 229.57 135.1C227.88 140.37 226.34 144.59 225.27 147.5C224.76 148.86 224.35 149.97 224.03 150.85C223.86 151.234 223.736 151.637 223.66 152.05C223.899 151.706 224.094 151.333 224.24 150.94L225.68 147.66C226.88 144.8 228.54 140.61 230.33 135.35C234.959 121.608 238.274 107.458 240.23 93.0899C241.39 84.6799 242.09 76.6199 242.5 69.2799C243.046 62.767 242.869 56.2136 241.97 49.7399C241.371 45.3456 239.946 41.1043 237.77 37.2399C237.175 36.1984 236.489 35.2112 235.72 34.2899C235.476 33.9523 235.19 33.6466 234.87 33.3799Z" fill="#263238"/>
<path d="M230.93 30.6299C230.494 30.3203 230.033 30.0493 229.55 29.8199C228.63 29.3299 227.28 28.5599 225.49 27.6999C220.43 25.2257 215.167 23.1883 209.76 21.6099C201.704 19.2623 193.31 18.2853 184.93 18.7199C175.47 19.1799 165.25 21.5199 154.99 25.0899C134.34 32.3099 117.99 44.0899 107.45 53.5099C103.235 57.2399 99.2291 61.1992 95.4499 65.3699C94.1099 66.8399 93.1399 68.0499 92.4499 68.8399C92.0765 69.2301 91.7417 69.6554 91.4499 70.1099C91.8646 69.7772 92.2464 69.4055 92.5899 68.9999C93.3299 68.2499 94.3499 67.0899 95.7399 65.6799C98.4899 62.8099 102.56 58.7599 107.92 54.1199C118.58 44.8799 134.84 33.3199 155.3 26.1699C165.49 22.6199 175.6 20.2699 184.93 19.7599C193.205 19.2869 201.501 20.172 209.49 22.3799C214.888 23.8822 220.163 25.7944 225.27 28.0999C227.09 28.8999 228.46 29.5999 229.42 30.0199C229.902 30.2731 230.408 30.4774 230.93 30.6299Z" fill="#263238"/>
<path d="M41.6501 27.8599C41.8182 27.8292 41.9802 27.7718 42.1301 27.6899L43.5001 27.0899L48.7001 24.6799L52.4401 22.9199L57.0201 21.0899C60.3001 19.7799 64.0202 18.1999 68.2502 16.8899L74.8701 14.6799C77.2001 13.9999 79.6402 13.3799 82.1602 12.6799C87.1602 11.1799 92.6801 10.2199 98.4201 8.96991C110.969 6.75204 123.678 5.5548 136.42 5.38992C149.165 5.43482 161.881 6.60604 174.42 8.88992C180.14 10.2199 185.64 11.2199 190.6 12.8899C193.09 13.6599 195.53 14.3099 197.83 15.0899L204.34 17.5699C208.09 18.9638 211.762 20.5595 215.34 22.3499C216.94 23.1099 218.44 23.7799 219.79 24.4599L223.38 26.4599L228.38 29.2699L229.69 29.9699C229.99 30.1299 230.15 30.1999 230.16 30.1799C230.043 30.0602 229.908 29.959 229.76 29.8799L228.5 29.0699L223.6 26.0699L220.04 23.9299C218.7 23.2199 217.21 22.5199 215.62 21.7299C212.05 19.8587 208.378 18.1894 204.62 16.7299L198.09 14.1799C195.8 13.3699 193.35 12.6899 190.85 11.8999C185.85 10.1899 180.35 9.13992 174.6 7.78992C162.003 5.42351 149.217 4.21182 136.4 4.16992C123.59 4.33376 110.815 5.56804 98.2101 7.85991C92.4501 9.14991 86.9302 10.1399 81.9102 11.6999C79.3802 12.4099 76.9101 13.0599 74.6001 13.7599L67.9801 16.0499C63.7201 17.4099 59.9801 19.0499 56.7601 20.4199L52.2101 22.3399L48.5001 24.1999L43.3801 26.8099L42.0701 27.5099C41.9122 27.6032 41.7703 27.7213 41.6501 27.8599Z" fill="#263238"/>
<path d="M230.93 30.6299C230.564 30.6911 230.21 30.8092 229.88 30.9799C229.22 31.2399 228.22 31.6199 226.98 32.1899C223.442 33.7519 219.994 35.5079 216.65 37.4499C211.689 40.3479 206.988 43.6703 202.6 47.3799C197.271 51.95 192.259 56.8781 187.6 62.1299C179.164 71.6835 171.323 81.7457 164.12 92.2599C161.32 96.2599 159.12 99.5399 157.6 101.81L155.89 104.45C155.66 104.754 155.478 105.091 155.35 105.45C155.625 105.202 155.867 104.92 156.07 104.61L157.96 102.1L164.77 92.7499C172.144 82.4111 180.045 72.458 188.44 62.9299C193.062 57.7004 198.016 52.7736 203.27 48.1799C207.588 44.4831 212.196 41.139 217.05 38.1799C221.21 35.6599 224.72 33.8499 227.16 32.6299C228.457 32.0428 229.716 31.3748 230.93 30.6299Z" fill="#263238"/>
</g>
<defs>
<clipPath id="clip0_151_17">
<rect width="304.53" height="334.01" fill="white" transform="matrix(-1 0 0 1 304.53 0)"/>
</clipPath>
</defs>
</svg>
