<svg width="40" height="40" viewBox="0 0 40 40" fill="none" xmlns="http://www.w3.org/2000/svg">
<g id="Frame 67">
<g id="Group 7">
<path id="Union" d="M27.3804 15.6C27.3934 15.4017 27.4 15.2016 27.4 15C27.4 10.0295 23.3705 6 18.4 6C13.4295 6 9.4 10.0295 9.4 15C9.4 15.2016 9.40659 15.4017 9.41963 15.6H8.2C4.22353 15.6 1 18.8235 1 22.8C1 26.7765 4.22353 30 8.2 30H27.4C31.3765 30 34.6 26.7765 34.6 22.8C34.6 18.8235 31.3765 15.6 27.4 15.6H27.3804Z" fill="url(#paint0_linear_55_162)"/>
<path id="Union_2" d="M31.9836 22C31.9945 21.8347 32 21.668 32 21.5C32 17.3579 28.6421 14 24.5 14C20.3579 14 17 17.3579 17 21.5C17 21.668 17.0055 21.8347 17.0164 22H16C12.6863 22 10 24.6863 10 28C10 31.3137 12.6863 34 16 34H32C35.3137 34 38 31.3137 38 28C38 24.6863 35.3137 22 32 22H31.9836Z" fill="url(#paint1_linear_55_162)"/>
</g>
</g>
<defs>
<linearGradient id="paint0_linear_55_162" x1="17.8" y1="6" x2="17.8" y2="30" gradientUnits="userSpaceOnUse">
<stop stop-color="#CEE4F4"/>
<stop offset="1" stop-color="#9FBFD9"/>
</linearGradient>
<linearGradient id="paint1_linear_55_162" x1="24" y1="14" x2="24" y2="34" gradientUnits="userSpaceOnUse">
<stop stop-color="#DAEBF7"/>
<stop offset="1" stop-color="#BFD6E8"/>
</linearGradient>
</defs>
</svg>
