<svg width="305" height="335" viewBox="0 0 305 335" fill="none" xmlns="http://www.w3.org/2000/svg">
<g clip-path="url(#clip0_151_263)">
<path d="M217.81 200.64C218.245 196.575 217.386 192.477 215.358 188.927C213.329 185.378 210.233 182.559 206.51 180.87C201.04 178.53 194.11 178.53 190.37 173.87C186.25 168.75 188.37 160.69 184.76 155.21C180.62 148.92 170.71 148.55 166.76 142.16C163.76 137.37 165.22 130.86 162.53 125.9C159.71 120.72 153.25 118.7 149.44 114.21C145.2 109.21 144.19 101.21 138.24 98.4801C134.85 96.9101 130.74 97.7001 127.52 99.5901C124.3 101.48 121.77 104.34 119.31 107.15L89.67 140.93C88.7894 141.809 88.1074 142.866 87.67 144.03C86.67 147.34 89.6701 150.36 92.0301 152.86C97.9555 159.13 101.604 167.209 102.39 175.8C102.87 181.14 102.58 187.38 106.74 190.8C109.96 193.42 114.93 193.34 117.74 196.4C121.74 200.82 118.5 207.91 119.57 213.8C120.57 219.29 125.38 223.3 130.37 225.8C135.36 228.3 140.88 229.8 145.5 232.93C150.12 236.06 153.86 241.51 152.69 246.93C162.651 242.108 171.811 235.785 179.85 228.18C177.463 224.72 175.08 221.257 172.7 217.79L185.35 225.72C187.02 222.72 190.35 221.24 193.12 219.27C195.89 217.3 198.42 213.94 197.27 210.74C195.89 206.89 190 205.69 189.49 201.63C195.023 202.917 199.958 206.04 203.49 210.49C209.14 208.22 214.82 205.98 217.84 200.69" fill="#263238"/>
<path d="M153.04 277.73L167.96 193.73C159.714 186.875 149.353 183.077 138.63 182.98L89.49 183.39C86.8929 183.671 84.3282 184.197 81.83 184.96C75.83 185.38 64.55 187.66 56.04 201.64C46.99 216.5 33.91 247.08 33.91 247.08L31.15 212.85L9.26996 206.18C-8.91003 254.67 2.75996 291.34 22.9 294.34C39.64 296.83 55.76 276.57 55.76 276.57L63.89 262.62L65.7 271.78L70.55 294.67L53.03 333.91C59.17 333.91 63.2599 334.16 70.8199 333.91H164.49C163.8 326.82 154.84 317.91 154.84 317.91C148.36 306.91 150.04 290.34 153.05 277.75" fill="#323757"/>
<path d="M63.4 323.46C63.6053 323.334 63.7964 323.187 63.97 323.02C64.4878 322.572 65.0286 322.152 65.59 321.76C67.6741 320.33 69.9826 319.259 72.42 318.59C76.0388 317.619 79.7886 317.228 83.53 317.43C88.1148 317.744 92.6744 318.355 97.18 319.26C101.711 320.181 106.317 320.689 110.94 320.78C114.739 320.779 118.508 320.102 122.07 318.78C124.47 317.89 126.682 316.557 128.59 314.85C129.102 314.381 129.58 313.877 130.02 313.34C130.187 313.164 130.338 312.974 130.47 312.77C130.277 312.915 130.103 313.083 129.95 313.27C129.478 313.768 128.98 314.242 128.46 314.69C126.528 316.319 124.32 317.589 121.94 318.44C118.406 319.678 114.685 320.298 110.94 320.27C106.348 320.161 101.774 319.653 97.27 318.75C92.7432 317.837 88.1591 317.235 83.55 316.95C79.7448 316.763 75.9347 317.199 72.27 318.24C69.8125 318.951 67.4979 320.084 65.43 321.59C64.8752 322.006 64.3474 322.457 63.8499 322.94C63.6831 323.098 63.5324 323.272 63.4 323.46Z" fill="#FAFAFA"/>
<path d="M33.37 262.44C33.68 262.44 34.05 258.77 34.19 254.22C34.33 249.67 34.19 245.97 33.88 245.96C33.57 245.95 33.2 249.63 33.06 254.18C32.92 258.73 33.06 262.43 33.37 262.44Z" fill="#263238"/>
<g opacity="0.2">
<path d="M157.63 320.96C157.99 321.06 159.99 323.96 159.44 325.24C159.112 325.852 158.623 326.362 158.025 326.715C157.427 327.067 156.744 327.249 156.05 327.24C154.656 327.22 153.278 326.935 151.99 326.4L104.99 310.4L83.4801 303.06C81.0201 302.22 78.1801 300.98 77.6801 298.43C77.6335 297.614 77.5299 296.802 77.3701 296C77.0927 295.409 76.688 294.886 76.1849 294.469C75.6818 294.052 75.0928 293.752 74.4601 293.59C73.1992 293.269 71.9928 292.764 70.8801 292.09C69.83 291.31 69.0901 288.82 69.7801 287.72C69.6801 287.91 77.5401 288.85 81.5001 290.83C81.2401 292.4 80.1901 296.4 80.1901 296.4C80.1901 296.4 84.4001 297.53 85.9101 298.14C110.79 308.14 132.73 312.44 157.58 320.92" fill="black"/>
</g>
<path d="M31.2601 146.31L64.8301 200.71L38.4101 208.06L9.10008 162.86L31.2601 146.31Z" fill="#455A64"/>
<path d="M33.3499 192.65L32.2099 200.6L27.5199 206.6L27.0499 211.54L10.2099 206.42L17.0199 182.42C17.0199 182.42 15.9199 175.42 16.3599 172.58L20.9899 178.73L22.2599 168.73L31.7599 161.09C32.0051 160.909 32.2837 160.778 32.5796 160.706C32.8755 160.633 33.1828 160.619 33.484 160.666C33.7852 160.712 34.0742 160.818 34.3343 160.976C34.5945 161.135 34.8207 161.344 34.9999 161.59C35.3258 162.037 35.4798 162.586 35.4339 163.137C35.388 163.688 35.1452 164.204 34.7499 164.59L27.1299 171.31L26.6399 179.6L32.1499 174.48C32.6883 173.969 33.3613 173.622 34.0899 173.48L41.7499 171.95C42.0233 171.896 42.305 171.899 42.577 171.96C42.8489 172.021 43.1052 172.138 43.3293 172.304C43.5534 172.469 43.7403 172.68 43.8782 172.922C44.0161 173.164 44.1018 173.433 44.1299 173.71C44.1734 174.168 44.058 174.626 43.803 175.009C43.548 175.391 43.1691 175.674 42.7299 175.81L35.7299 177.96L28.6799 185.07L35.5699 182.45L44.9399 183.76C45.3746 183.819 45.773 184.034 46.0602 184.365C46.3475 184.697 46.5038 185.122 46.4999 185.56C46.5003 185.806 46.4504 186.05 46.3532 186.277C46.2561 186.503 46.1138 186.707 45.9349 186.877C45.7561 187.046 45.5446 187.177 45.3133 187.262C45.0821 187.347 44.8359 187.384 44.5899 187.37L38.5899 187.04L35.0899 188.13L43.1499 190.27C43.5107 190.364 43.828 190.579 44.0484 190.88C44.2688 191.18 44.3788 191.548 44.3599 191.92C44.3486 192.138 44.2937 192.351 44.1985 192.547C44.1032 192.743 43.9696 192.919 43.8055 193.062C43.6414 193.206 43.4501 193.315 43.243 193.383C43.036 193.452 42.8173 193.478 42.5999 193.46L33.3499 192.65Z" fill="#FFBE9D"/>
<path d="M64.83 200.71C64.83 200.71 67.08 197.64 66.91 197.12C66.74 196.6 34.96 144.3 34.96 144.3L31.26 146.3L64.83 200.71Z" fill="#263238"/>
<path d="M22.8501 159.98C22.7016 159.851 22.5243 159.76 22.3332 159.715C22.142 159.67 21.9428 159.671 21.7523 159.719C21.5618 159.767 21.3858 159.861 21.2392 159.991C21.0925 160.122 20.9796 160.286 20.9101 160.47C20.8703 160.662 20.8769 160.86 20.9293 161.049C20.9818 161.238 21.0785 161.411 21.2116 161.555C21.3446 161.699 21.5101 161.809 21.6942 161.876C21.8783 161.943 22.0758 161.965 22.2701 161.94C22.4572 161.884 22.6283 161.784 22.7691 161.649C22.91 161.513 23.0166 161.346 23.0801 161.162C23.1436 160.977 23.1623 160.78 23.1344 160.586C23.1066 160.393 23.0331 160.209 22.9201 160.05" fill="#263238"/>
<path d="M158.55 188.03C158.55 188.03 183.55 195.62 188.98 233.03C190.87 245.96 193.16 275.75 193.98 297.86C194.49 312.35 189.11 320.51 180.35 323.56C175.706 325.07 170.704 325.07 166.06 323.56L80.4701 296.92L87.9001 261.07L152.27 278.45L150.65 251.89L158.55 188.03Z" fill="#323757"/>
<path d="M164.01 291.95C163.721 290.359 163.137 288.837 162.29 287.46C159.848 283.555 156.429 280.356 152.37 278.18L88.7299 262.18L88.19 262.04L88.06 262.59L82.69 285.39L80.12 296.39L80.0099 296.89L80.5 297.05C106.22 305.52 129.15 312.78 145.7 317.79C153.97 320.29 160.65 322.23 165.26 323.51L170.58 324.94L171.97 325.28C172.125 325.331 172.287 325.358 172.45 325.36C172.45 325.36 172.3 325.28 172 325.18L170.64 324.73L165.38 323.12L145.92 317.06C129.45 311.86 106.56 304.47 80.8499 295.98L81.22 296.65C82.05 293.15 82.92 289.44 83.8 285.65L89.14 262.84L88.47 263.26L152.21 278.81H152.15C156.145 280.903 159.552 283.962 162.06 287.71C162.832 289.064 163.485 290.483 164.01 291.95Z" fill="#263238"/>
<path d="M152.27 245.96C151.96 245.96 151.96 253.38 152.27 262.5C152.58 271.62 153.1 279.02 153.42 279.01C153.74 279 153.73 271.59 153.42 262.46C153.11 253.33 152.64 245.94 152.27 245.96Z" fill="#263238"/>
<path d="M43.1001 227.18C43.1001 227.18 43.6601 227.06 44.7401 227.06C46.3121 227.102 47.8528 227.509 49.2401 228.25C51.428 229.442 53.41 230.978 55.1101 232.8C56.1101 233.8 57.2601 234.92 58.5401 235.99C59.8803 237.148 61.4002 238.08 63.0401 238.75C66.5101 240.17 70.7401 240.2 75.0401 239.45C79.3401 238.7 83.7201 237.17 88.4701 236.28C90.8914 235.795 93.3673 235.64 95.8301 235.82C98.3894 236.079 100.87 236.854 103.12 238.1C107.77 240.57 111.68 244.51 116.32 247.71C118.608 249.33 121.135 250.582 123.81 251.42C126.419 252.2 129.14 252.538 131.86 252.42C134.491 252.319 137.086 251.782 139.54 250.83C141.857 249.884 144.05 248.658 146.07 247.18C150.07 244.37 153.47 241.18 157.01 238.77C160.215 236.382 163.922 234.757 167.85 234.02C171.102 233.476 174.43 233.585 177.64 234.34C180.064 234.9 182.392 235.813 184.55 237.05C186.387 238.119 188.086 239.409 189.61 240.89C189.527 240.777 189.434 240.674 189.33 240.58L188.46 239.7C188.06 239.33 187.54 238.91 186.93 238.4C186.199 237.851 185.438 237.343 184.65 236.88C182.489 235.594 180.146 234.643 177.7 234.06C174.457 233.263 171.088 233.123 167.79 233.65C165.875 233.971 164.008 234.529 162.23 235.31C160.308 236.159 158.476 237.198 156.76 238.41C153.18 240.87 149.76 244.01 145.76 246.79C143.753 248.231 141.581 249.426 139.29 250.35C136.886 251.275 134.345 251.795 131.77 251.89C129.106 251.998 126.443 251.66 123.89 250.89C121.268 250.069 118.791 248.841 116.55 247.25C111.95 244.09 108.03 240.14 103.29 237.62C100.982 236.343 98.4359 235.554 95.8101 235.3C93.3 235.11 90.7755 235.271 88.3101 235.78C83.5101 236.69 79.1401 238.27 74.9001 238.99C70.6601 239.71 66.5401 239.74 63.1401 238.38C59.7401 237.02 57.4001 234.53 55.2801 232.56C53.5413 230.735 51.5143 229.208 49.2801 228.04C47.8565 227.309 46.2803 226.925 44.6801 226.92C44.1443 226.937 43.613 227.024 43.1001 227.18Z" fill="#FAFAFA"/>
<path d="M55.95 203.18L56.16 203.46C56.31 203.63 56.51 203.91 56.83 204.23C57.7316 205.186 58.7379 206.038 59.83 206.77C61.5522 207.927 63.45 208.798 65.45 209.35C68.1138 210.069 70.9033 210.192 73.62 209.71C76.62 209.25 79.81 208.17 83.31 207.71C87.0509 207.192 90.8578 207.934 94.13 209.82C97.64 211.7 100.86 214.44 104.39 217C106.176 218.339 108.073 219.523 110.06 220.54C112.131 221.549 114.313 222.314 116.56 222.82C121.006 223.825 125.626 223.777 130.05 222.68C134.118 221.569 138.007 219.886 141.6 217.68C145.07 215.68 148.22 213.51 151.26 211.68C154.043 209.922 156.966 208.397 160 207.12C164.384 205.207 169.205 204.516 173.95 205.12C175.233 205.305 176.493 205.623 177.71 206.07C178.13 206.22 178.44 206.37 178.65 206.45L178.98 206.56L178.67 206.4C178.371 206.243 178.064 206.103 177.75 205.98C176.541 205.484 175.28 205.129 173.99 204.92C169.197 204.237 164.308 204.887 159.86 206.8C156.794 208.059 153.841 209.574 151.03 211.33C147.98 213.18 144.82 215.33 141.36 217.33C137.785 219.473 133.927 221.105 129.9 222.18C125.549 223.246 121.01 223.287 116.64 222.3C114.433 221.804 112.292 221.052 110.26 220.06C108.298 219.06 106.425 217.896 104.66 216.58C101.14 214.04 97.91 211.29 94.33 209.39C92.5979 208.441 90.729 207.766 88.79 207.39C87.8556 207.22 86.9094 207.123 85.96 207.1C85.0434 207.102 84.1281 207.166 83.22 207.29C79.66 207.8 76.51 208.9 73.53 209.37C70.8755 209.864 68.1451 209.772 65.53 209.1C63.5469 208.58 61.6597 207.746 59.94 206.63C58.8615 205.918 57.8565 205.101 56.94 204.19C56.62 203.88 56.41 203.62 56.24 203.46C56.1559 203.354 56.0584 203.26 55.95 203.18Z" fill="#FAFAFA"/>
<path d="M153.37 272.64C153.37 272.76 155.6 271.64 159.37 270.64L160.86 270.29C161.38 270.17 161.93 270.1 162.5 270C163.62 269.78 164.85 269.7 166.13 269.58C168.921 269.417 171.721 269.527 174.49 269.91C177.256 270.346 179.972 271.053 182.6 272.02C183.79 272.51 184.94 272.94 185.95 273.48C186.46 273.74 186.95 273.96 187.43 274.23L188.75 275C192.1 277 193.86 278.71 193.94 278.62C193.561 278.195 193.146 277.804 192.7 277.45C192.206 276.998 191.685 276.577 191.14 276.19C190.5 275.74 189.8 275.19 188.95 274.68C188.517 274.433 188.077 274.163 187.63 273.87C187.17 273.6 186.63 273.36 186.14 273.09C185.14 272.53 183.97 272.09 182.77 271.57C180.118 270.568 177.37 269.84 174.57 269.4C171.765 269.007 168.926 268.907 166.1 269.1C164.868 269.19 163.643 269.35 162.43 269.58C161.86 269.69 161.3 269.76 160.78 269.89L159.28 270.29C158.423 270.511 157.578 270.778 156.75 271.09C156.116 271.303 155.495 271.553 154.89 271.84C154.362 272.063 153.853 272.331 153.37 272.64Z" fill="#FAFAFA"/>
<path d="M129.91 273.37C130.399 273.838 130.848 274.346 131.25 274.89C132.241 276.438 132.836 278.207 132.98 280.04C133.27 282.36 132.9 285.14 132.98 288.27C132.983 289.925 133.263 291.568 133.81 293.13C134.456 294.784 135.368 296.321 136.51 297.68C138.82 300.49 141.58 302.57 143.83 304.68C145.897 306.453 147.596 308.613 148.83 311.04C149.65 312.688 150.061 314.51 150.03 316.35C149.978 317.021 149.892 317.688 149.77 318.35C149.853 318.192 149.917 318.024 149.96 317.85C150.099 317.36 150.19 316.858 150.23 316.35C150.347 314.466 149.982 312.584 149.17 310.88C147.957 308.382 146.257 306.152 144.17 304.32C141.91 302.17 139.17 300.09 136.93 297.32C135.821 296.006 134.932 294.52 134.3 292.92C133.765 291.414 133.485 289.829 133.47 288.23C133.4 285.15 133.74 282.33 133.39 279.97C133.212 278.089 132.547 276.286 131.46 274.74C131.046 274.179 130.518 273.712 129.91 273.37Z" fill="#FAFAFA"/>
<path d="M90.87 299.18C90.9601 298.717 91.0236 298.25 91.06 297.78C91.2494 296.527 91.6917 295.326 92.36 294.25C93.381 292.654 94.528 291.143 95.79 289.73C97.19 288.11 98.85 286.4 100.33 284.38C102.829 280.882 104.404 276.809 104.91 272.54C105.083 271.263 105.19 269.978 105.23 268.69C105.275 268.218 105.275 267.742 105.23 267.27C105.129 267.734 105.072 268.206 105.06 268.68C104.97 269.58 104.84 270.89 104.58 272.49C103.978 276.664 102.387 280.635 99.94 284.07C98.49 286.07 96.84 287.77 95.46 289.42C94.1955 290.861 93.0642 292.414 92.08 294.06C91.411 295.189 91.0043 296.453 90.89 297.76C90.8697 298.093 90.8697 298.427 90.89 298.76C90.84 299.08 90.85 299.18 90.87 299.18Z" fill="#FAFAFA"/>
<path d="M35.4801 252.64C35.5172 252.963 35.5979 253.279 35.7201 253.58C35.8263 253.942 35.9566 254.296 36.1101 254.64C36.2801 255.05 36.4601 255.52 36.7201 256.01C37.3037 257.181 37.9897 258.299 38.7701 259.35C39.739 260.63 40.8308 261.812 42.0301 262.88C43.2405 263.931 44.55 264.862 45.9401 265.66C47.0795 266.3 48.2743 266.835 49.5101 267.26C50.3406 267.557 51.1933 267.787 52.0601 267.95C52.3848 268.043 52.7229 268.08 53.0601 268.06C53.0601 267.97 51.7301 267.71 49.6801 266.92C48.4853 266.45 47.3285 265.888 46.2201 265.24C44.8728 264.435 43.598 263.515 42.4101 262.49C41.2382 261.443 40.1607 260.296 39.1901 259.06C38.4091 258.042 37.7071 256.965 37.0901 255.84C36.0001 253.92 35.5801 252.61 35.4801 252.64Z" fill="#FAFAFA"/>
<path d="M0.00012207 254.41C0.100121 254.49 1.28013 252.67 3.76013 250.27C5.2091 248.866 6.78593 247.601 8.47012 246.49C10.5387 245.135 12.7483 244.008 15.0601 243.13C18.33 241.879 21.7744 241.143 25.2701 240.95C27.567 240.858 29.8674 240.985 32.1401 241.33H32.3801L32.2401 241.14C31.9422 240.674 31.6078 240.233 31.2401 239.82C31.471 240.325 31.7489 240.807 32.0701 241.26L32.1801 241.1C29.901 240.632 27.5761 240.424 25.2501 240.48C21.6871 240.617 18.1706 241.337 14.8401 242.61C12.4962 243.503 10.2618 244.661 8.18013 246.06C6.48294 247.202 4.90498 248.512 3.47012 249.97C2.90889 250.521 2.38127 251.106 1.89012 251.72L1.27013 252.45C1.10013 252.69 0.940125 252.91 0.800125 253.12C0.495342 253.525 0.227596 253.957 0.00012207 254.41Z" fill="#FAFAFA"/>
<path d="M81.3901 94.5601C81.6901 98.5601 79.0201 102.21 76.3401 105.23C73.6601 108.25 70.6601 111.42 70.0801 115.43C69.0801 122.53 76.0001 129.12 74.5701 136.15C73.8001 139.92 70.7101 142.94 70.1701 146.75C69.6301 150.56 71.6101 154.03 74.0501 156.83C76.4901 159.63 79.4801 161.97 81.6401 165C83.9201 168.19 85.1701 172 86.8101 175.53C88.4501 179.06 90.6401 182.62 94.0901 184.53C99.2601 187.34 106.52 186.02 110.49 190.37C114.46 194.72 113.12 202.26 117.84 205.43" fill="#263238"/>
<path d="M143.44 100.74C143.55 97.0699 140.16 94.2499 136.75 92.8999C133.34 91.5499 129.56 91.0599 126.52 89.0099C123.83 87.1999 122.02 84.3799 119.74 82.0699C116.903 79.2576 113.382 77.2327 109.525 76.1946C105.667 75.1565 101.606 75.1412 97.7401 76.1499C93.9005 77.2437 90.4117 79.318 87.6168 82.169C84.822 85.0199 82.8173 88.5493 81.8001 92.4099C80.4901 97.6299 81.3902 103.79 85.5002 107.26C90.2702 111.26 97.3401 110.39 103.45 109.14C109.56 107.89 116.45 106.65 121.59 110.24C124.66 112.41 126.43 115.93 128.31 119.19C130.19 122.45 132.55 125.77 136.11 127C139.67 128.23 144.5 126.11 144.64 122.35" fill="#263238"/>
<path d="M129 101.49C130.525 101.653 131.934 102.382 132.947 103.534C133.96 104.686 134.504 106.176 134.47 107.71L130.82 190.46C130.66 200.23 116.57 200.95 106.1 200.71V199.71C95.5399 199.47 95.0099 200.07 94.8799 190.78C94.6599 175.24 94.6699 169.41 94.6699 169.5C94.6699 169.59 81.32 167.25 78.59 149.83C77.24 141.16 77.6999 126.96 78.4599 115.35C79.1399 104.9 86.0999 92.09 96.5099 93.22L129 101.49Z" fill="#FFBE9D"/>
<path d="M81.7601 125.28C81.7544 125.862 81.9757 126.424 82.3771 126.846C82.7784 127.268 83.3283 127.517 83.9101 127.54C84.1937 127.563 84.479 127.53 84.7494 127.441C85.0198 127.353 85.2699 127.211 85.485 127.025C85.7001 126.839 85.8759 126.611 86.0021 126.357C86.1283 126.102 86.2024 125.824 86.2201 125.54C86.2258 124.958 86.0045 124.396 85.6031 123.974C85.2018 123.552 84.6519 123.303 84.0701 123.28C83.7868 123.258 83.502 123.293 83.2322 123.382C82.9623 123.471 82.7128 123.612 82.498 123.798C82.2832 123.984 82.1074 124.211 81.9807 124.465C81.8541 124.72 81.7791 124.997 81.7601 125.28Z" fill="#263238"/>
<path d="M81.5301 122.73C81.8001 123.02 83.5301 121.73 85.9001 121.78C88.2701 121.83 90.0701 123 90.3301 122.7C90.4601 122.57 90.1701 122.05 89.4101 121.49C88.3728 120.765 87.1357 120.381 85.8701 120.39C84.6185 120.381 83.3962 120.769 82.3801 121.5C81.6401 122.07 81.3901 122.59 81.5301 122.73Z" fill="#263238"/>
<path d="M105.7 125.9C105.692 126.483 105.912 127.046 106.314 127.468C106.716 127.891 107.267 128.139 107.85 128.16C108.134 128.183 108.419 128.149 108.689 128.061C108.96 127.973 109.21 127.831 109.425 127.645C109.64 127.459 109.816 127.231 109.942 126.976C110.068 126.721 110.142 126.444 110.16 126.16C110.166 125.578 109.944 125.016 109.543 124.594C109.142 124.172 108.592 123.923 108.01 123.9C107.726 123.877 107.441 123.91 107.171 123.999C106.9 124.087 106.65 124.229 106.435 124.415C106.22 124.601 106.044 124.828 105.918 125.083C105.792 125.338 105.718 125.616 105.7 125.9Z" fill="#263238"/>
<path d="M105.16 123.23C105.43 123.52 107.16 122.23 109.53 122.28C111.9 122.33 113.7 123.5 113.96 123.21C114.09 123.07 113.81 122.55 113.04 121.99C112.003 121.265 110.766 120.881 109.5 120.89C108.249 120.881 107.026 121.269 106.01 122C105.27 122.57 105.02 123.1 105.16 123.23Z" fill="#263238"/>
<path d="M96.3901 141.04C96.3901 140.9 94.9101 140.64 92.4901 140.32C91.8801 140.26 91.3001 140.13 91.1901 139.72C91.1429 139.085 91.2893 138.45 91.6101 137.9C92.1901 136.41 92.7901 134.9 93.4301 133.23C95.9701 126.58 97.8101 121.11 97.5401 121.01C97.2701 120.91 94.9901 126.22 92.4601 132.87C91.8501 134.51 91.2601 136.07 90.7101 137.57C90.3161 138.305 90.2024 139.158 90.3901 139.97C90.4759 140.187 90.6108 140.381 90.7843 140.537C90.9579 140.694 91.1652 140.807 91.3901 140.87C91.7164 140.959 92.0521 141.009 92.3901 141.02C93.7174 141.193 95.0612 141.2 96.3901 141.04Z" fill="#263238"/>
<path d="M94.67 169.48C102.871 169.623 110.951 167.487 118.01 163.31C118.01 163.31 112.33 175.26 94.89 173.59L94.67 169.48Z" fill="#EB996E"/>
<path d="M97.4001 146.83C97.8581 146.256 98.4545 145.808 99.1332 145.528C99.812 145.249 100.551 145.146 101.28 145.23C101.81 145.281 102.324 145.437 102.793 145.69C103.262 145.942 103.676 146.286 104.01 146.7C104.329 147.102 104.519 147.593 104.553 148.105C104.587 148.618 104.464 149.129 104.2 149.57C103.811 150.001 103.303 150.306 102.74 150.446C102.178 150.587 101.586 150.557 101.04 150.36C99.9073 149.951 98.8648 149.326 97.9701 148.52C97.7017 148.327 97.4712 148.086 97.29 147.81C97.2023 147.676 97.1555 147.52 97.1555 147.36C97.1555 147.2 97.2023 147.044 97.29 146.91" fill="#EB996E"/>
<path d="M103.46 142.71C103.07 142.71 103.06 145.3 100.82 147.15C98.5799 149 95.8199 148.7 95.8199 149.07C95.8199 149.23 96.4399 149.57 97.6099 149.61C99.138 149.632 100.625 149.115 101.81 148.15C102.951 147.228 103.687 145.897 103.86 144.44C103.93 143.35 103.64 142.7 103.46 142.71Z" fill="#263238"/>
<path d="M104.08 119.01C104.32 119.67 106.72 119.36 109.54 119.71C112.36 120.06 114.64 120.83 115.02 120.25C115.18 119.97 114.79 119.35 113.87 118.71C112.648 117.921 111.257 117.431 109.81 117.28C108.367 117.107 106.904 117.278 105.54 117.78C104.51 118.18 103.98 118.7 104.08 119.01Z" fill="#263238"/>
<path d="M82.4301 115.77C82.8501 116.32 84.5101 115.77 86.5001 115.77C88.4901 115.77 90.1701 116.15 90.5601 115.58C90.7301 115.3 90.4701 114.75 89.7301 114.23C88.75 113.595 87.5968 113.281 86.4301 113.33C85.2594 113.345 84.1228 113.726 83.1801 114.42C82.4701 114.94 82.2701 115.5 82.4301 115.77Z" fill="#263238"/>
<path d="M94.2701 169.65C97.9201 171.15 97.8601 177.12 100.59 179.96C104.18 183.68 110.71 181.07 115.4 183.24C121.61 186.12 121.55 195.45 126.79 199.86C130 202.56 134.88 203.08 137.41 206.44C139.94 209.8 138.41 215.77 134.32 217.37L130.45 214.92C131.56 216.71 130.99 219.16 129.66 220.8C128.218 222.347 126.471 223.579 124.53 224.42C122.18 224.16 120.89 221.56 120.37 219.25C119.85 216.94 119.51 214.33 117.67 212.84C115.45 211.05 112.05 211.75 109.58 210.33C104.69 207.51 106.77 199.1 102.42 195.5C99.6601 193.22 95.5201 193.9 92.2201 192.5C87.4701 190.5 85.5701 184.76 85.0701 179.63C84.5701 174.5 84.8501 169.02 82.3101 164.53" fill="#263238"/>
<path d="M141.17 158.8C138.763 159.264 136.281 159.159 133.921 158.494C131.562 157.829 129.39 156.622 127.58 154.97C125.798 153.285 124.436 151.206 123.601 148.9C122.765 146.594 122.481 144.125 122.77 141.69C123.31 137.42 125.61 133.06 124.13 129.01C122.13 123.66 114.66 122.01 112.67 116.67C111.52 113.56 112.55 109.93 111.24 106.89C110.01 104.03 107 102.38 104.07 101.32C101.14 100.26 97.9999 99.5299 95.5399 97.6199C93.0799 95.7099 91.5399 92.0999 93.1299 89.4099C106.139 90.9728 118.915 94.0779 131.19 98.6599C134.04 99.7199 137.02 101 138.7 103.53C140.38 106.06 140.4 109.66 140.25 112.86L138.06 159.79" fill="#263238"/>
<path d="M150.56 173.28C150.619 172.893 150.639 172.501 150.62 172.11C150.587 170.982 150.346 169.87 149.91 168.83C149.218 167.184 148.221 165.684 146.97 164.41C145.296 162.749 143.381 161.35 141.29 160.26C139.01 158.99 136.4 157.84 133.78 156.26C130.938 154.728 128.546 152.481 126.84 149.74C125.969 148.249 125.503 146.556 125.49 144.83C125.572 143.015 125.836 141.212 126.28 139.45C126.786 137.577 126.911 135.622 126.65 133.7C126.467 132.701 126.045 131.761 125.42 130.96C124.777 130.159 123.994 129.482 123.11 128.96C121.36 127.96 119.47 127.33 117.74 126.51C116.01 125.824 114.54 124.609 113.54 123.04C112.726 121.435 112.305 119.66 112.31 117.86C112.24 116.08 112.31 114.32 112.31 112.59C112.333 110.892 112.073 109.202 111.54 107.59C111.402 107.198 111.227 106.82 111.02 106.46C110.833 106.108 110.615 105.774 110.37 105.46C109.884 104.826 109.308 104.266 108.66 103.8C106.11 101.95 103.2 101.37 100.71 100.75C98.4237 100.328 96.2321 99.4982 94.2399 98.2999C92.7763 97.3395 91.6857 95.9066 91.1499 94.2399C90.7914 93.1898 90.7669 92.0545 91.0799 90.9899C91.2146 90.6288 91.3681 90.275 91.5399 89.9299C91.2982 90.2293 91.1088 90.5674 90.9799 90.9299C90.6337 92.0163 90.6337 93.1835 90.9799 94.2699C91.5028 96.0047 92.6038 97.5081 94.0999 98.5299C96.1129 99.7675 98.3313 100.634 100.65 101.09C103.15 101.73 106 102.34 108.44 104.09C109.044 104.547 109.585 105.082 110.05 105.68C110.281 105.996 110.485 106.33 110.66 106.68C110.85 107.022 111.011 107.38 111.14 107.75C111.653 109.321 111.896 110.968 111.86 112.62C111.86 114.32 111.77 116.08 111.86 117.9C111.851 119.784 112.293 121.642 113.15 123.32C114.199 124.981 115.746 126.269 117.57 127C119.383 127.72 121.158 128.531 122.89 129.43C123.721 129.9 124.456 130.521 125.06 131.26C125.629 132.001 126.019 132.863 126.2 133.78C126.442 135.636 126.316 137.522 125.83 139.33C125.383 141.125 125.122 142.961 125.05 144.81C125.061 146.623 125.555 148.401 126.48 149.96C128.236 152.763 130.694 155.058 133.61 156.62C136.27 158.15 138.89 159.28 141.16 160.53C143.234 161.572 145.138 162.92 146.81 164.53C148.072 165.758 149.09 167.213 149.81 168.82C150.257 169.833 150.527 170.916 150.61 172.02C150.57 172.87 150.53 173.28 150.56 173.28Z" fill="#263238"/>
<path d="M99.78 185.23C98.6512 185.399 97.5115 185.486 96.37 185.49C93.2525 185.382 90.2362 184.356 87.7 182.54C85.9473 181.315 84.4804 179.725 83.4 177.88C82.2554 175.698 81.5167 173.326 81.22 170.88C80.75 168.33 80.36 165.51 78.92 162.95C77.48 160.39 74.83 158.71 72.64 156.71C70.4325 154.806 68.99 152.166 68.58 149.28C68.3876 147.921 68.4214 146.539 68.68 145.19C68.9445 143.9 69.4137 142.661 70.07 141.52C71.35 139.28 72.96 137.29 73.7 135.01C74.3759 132.921 74.6075 130.714 74.38 128.53C73.9902 125.408 73.1691 122.356 71.94 119.46C71.52 118.46 71.18 117.64 70.94 117.11C70.8332 116.831 70.6992 116.563 70.54 116.31C70.54 116.31 70.63 116.6 70.84 117.15L71.75 119.53C72.8969 122.417 73.6568 125.444 74.01 128.53C74.2156 130.657 73.9702 132.804 73.29 134.83C72.57 137.03 70.98 138.97 69.65 141.26C68.9623 142.444 68.4694 143.73 68.19 145.07C67.9178 146.474 67.8806 147.914 68.08 149.33C68.2876 150.795 68.7478 152.213 69.44 153.52C70.1714 154.86 71.1366 156.059 72.29 157.06C74.54 159.06 77.09 160.72 78.48 163.18C79.87 165.64 80.27 168.38 80.74 170.94C81.0661 173.429 81.8421 175.838 83.03 178.05C84.1547 179.935 85.6767 181.553 87.49 182.79C90.0919 184.62 93.1893 185.614 96.37 185.64C96.8647 185.652 97.3595 185.625 97.85 185.56C98.21 185.532 98.5675 185.478 98.92 185.4C99.2109 185.367 99.4985 185.31 99.78 185.23Z" fill="#263238"/>
<path d="M81.55 290.87L86.77 267.69L81.14 265.36C78.4213 263.291 75.8914 260.986 73.58 258.47C72.3833 257.186 71.4129 255.708 70.71 254.1C69.7578 252.137 69.0846 250.05 68.71 247.9C68.56 245.9 66.06 245.12 65.09 246.66C64.12 248.2 64.39 253.74 67.52 259.4C69.63 263.22 66.01 262.73 62.38 261.59C61.072 261.194 59.6643 261.292 58.4239 261.866C57.1834 262.439 56.1964 263.447 55.65 264.7L52.32 272.31C51.8176 273.456 51.5551 274.693 51.5488 275.945C51.5425 277.197 51.7925 278.436 52.2834 279.588C52.7743 280.739 53.4957 281.778 54.4032 282.64C55.3106 283.502 56.385 284.169 57.56 284.6L60.38 285.6L81.56 290.84" fill="#FFBE9D"/>
</g>
<defs>
<clipPath id="clip0_151_263">
<rect width="304.53" height="334.01" fill="white" transform="matrix(-1 0 0 1 304.53 0)"/>
</clipPath>
</defs>
</svg>
